<svg width="40" height="40" viewBox="0 0 40 40" fill="none" xmlns="http://www.w3.org/2000/svg">
<g clip-path="url(#clip0_116_525)">
<path d="M34.4453 8.88867H24.4453V36.6665H36.6675V11.1109C36.6675 10.5215 36.4334 9.95629 36.0167 9.53955C35.5999 9.1228 35.0347 8.88867 34.4453 8.88867ZM28.8898 27.7776H26.6675V25.5553H28.8898V27.7776ZM28.8898 22.222H26.6675V19.9998H28.8898V22.222ZM28.8898 16.6665H26.6675V14.4442H28.8898V16.6665ZM33.3342 27.7776H31.112V25.5553H33.3342V27.7776ZM33.3342 22.222H31.112V19.9998H33.3342V22.222ZM33.3342 16.6665H31.112V14.4442H33.3342V16.6665Z" fill="#857045"/>
<path d="M19.8675 3.3335H6.80087C6.17614 3.3335 5.57699 3.58167 5.13524 4.02342C4.69349 4.46517 4.44531 5.06432 4.44531 5.68905V36.6668H10.0009V33.3335H16.6675V36.6668H22.2231V5.68905C22.2231 5.06432 21.9749 4.46517 21.5332 4.02342C21.0914 3.58167 20.4923 3.3335 19.8675 3.3335ZM10.0009 27.7779H7.77865V25.5557H10.0009V27.7779ZM10.0009 22.2224H7.77865V20.0002H10.0009V22.2224ZM10.0009 16.6668H7.77865V14.4446H10.0009V16.6668ZM10.0009 11.1113H7.77865V8.88905H10.0009V11.1113ZM14.4453 27.7779H12.2231V25.5557H14.4453V27.7779ZM14.4453 22.2224H12.2231V20.0002H14.4453V22.2224ZM14.4453 16.6668H12.2231V14.4446H14.4453V16.6668ZM14.4453 11.1113H12.2231V8.88905H14.4453V11.1113ZM18.8898 27.7779H16.6675V25.5557H18.8898V27.7779ZM18.8898 22.2224H16.6675V20.0002H18.8898V22.2224ZM18.8898 16.6668H16.6675V14.4446H18.8898V16.6668ZM18.8898 11.1113H16.6675V8.88905H18.8898V11.1113Z" fill="#857045"/>
</g>
<defs>
<clipPath id="clip0_116_525">
<rect width="40" height="40" fill="white"/>
</clipPath>
</defs>
</svg>
