<svg width="40" height="41" viewBox="0 0 40 41" fill="none" xmlns="http://www.w3.org/2000/svg">
<path d="M36.25 5.5H33.75V3.50063C33.75 2.5375 33.0263 1.75 32.1438 1.75H24.1038C23.2238 1.75 22.5 2.5375 22.5 3.50063V5.5H7.46312L3.75 13H6.32812V18H5.91062L3.82812 20.5L5.91062 23H6.36688V24.3425C6.36688 24.6819 6.62875 24.9563 6.95312 24.9563C7.9225 24.9563 8.71125 25.7838 8.71125 26.8006C8.71125 27.8175 7.9225 28.645 6.95312 28.645C5.98375 28.645 5.195 27.8175 5.195 26.8006C5.195 26.4613 4.9325 26.1869 4.60875 26.1869C4.28438 26.1869 4.0225 26.4613 4.0225 26.8006C4.02375 28.4969 5.3375 29.875 6.95312 29.875C8.56813 29.875 9.88312 28.4969 9.88312 26.8013C9.88312 25.3169 8.875 24.0744 7.53937 23.79V23H7.995L10.0781 20.5L7.995 18H7.57812V13H22.5V17.4994C22.5 18.3294 23.0381 19.025 23.75 19.2038V39.25H25.3906V35.5L30.8594 37.375L25.3906 39.25H32.5V19.2031C33.2125 19.025 33.75 18.3294 33.75 17.4994V13H36.25V11.125H34.9513L36.25 8.65938V5.5ZM6.65187 11.125L8.11188 8.12563L9.69063 11.125H6.65187ZM9.41562 7.375H12.0113L10.7138 9.84062L9.41562 7.375ZM11.7369 11.125L13.035 8.65938L14.3338 11.125H11.7369ZM14.0587 7.375H16.6544L15.3562 9.84062L14.0587 7.375ZM16.3806 11.125L17.6781 8.65938L18.9756 11.125H16.3806ZM18.7019 7.375H21.2975L20 9.84062L18.7019 7.375ZM22.5 11.125H21.0231L22.3206 8.65938L22.5 9V11.125ZM30.8594 35.5L25.3906 33.625L30.8594 31.75V35.5ZM25.3906 31.75V28L30.8594 29.8762L25.3906 31.75ZM30.8594 28L25.3906 26.125L30.8594 24.25V28ZM25.3906 24.25V20.5012L30.8594 22.375L25.3906 24.25ZM30.8594 20.5012L27.2125 19.25H30.8594V20.5012ZM31.7969 10.03C31.7969 10.6319 31.3744 11.125 30.8594 11.125H25.2331C24.7181 11.125 24.2969 10.6319 24.2969 10.03V4.72375C24.2969 4.11812 24.7181 3.625 25.2331 3.625H30.8594C31.3744 3.625 31.7969 4.11812 31.7969 4.72375V10.03ZM33.9281 9.84062L33.75 9.50187V7.375H35.2256L33.9281 9.84062Z" fill="#857045"/>
</svg>
