<svg width="41" height="41" viewBox="0 0 41 41" fill="none" xmlns="http://www.w3.org/2000/svg">
<path d="M28.5 15.5C28.5 15.894 28.4224 16.2841 28.2716 16.6481C28.1209 17.012 27.8999 17.3427 27.6213 17.6213C27.3427 17.8999 27.012 18.1209 26.6481 18.2716C26.2841 18.4224 25.894 18.5 25.5 18.5C25.106 18.5 24.7159 18.4224 24.3519 18.2716C23.988 18.1209 23.6573 17.8999 23.3787 17.6213C23.1001 17.3427 22.8791 17.012 22.7284 16.6481C22.5776 16.2841 22.5 15.894 22.5 15.5C22.5 14.7044 22.8161 13.9413 23.3787 13.3787C23.9413 12.8161 24.7044 12.5 25.5 12.5C26.2956 12.5 27.0587 12.8161 27.6213 13.3787C28.1839 13.9413 28.5 14.7044 28.5 15.5ZM26.5 15.5C26.5 15.2348 26.3946 14.9804 26.2071 14.7929C26.0196 14.6054 25.7652 14.5 25.5 14.5C25.2348 14.5 24.9804 14.6054 24.7929 14.7929C24.6054 14.9804 24.5 15.2348 24.5 15.5C24.5 15.7652 24.6054 16.0196 24.7929 16.2071C24.9804 16.3946 25.2348 16.5 25.5 16.5C25.7652 16.5 26.0196 16.3946 26.2071 16.2071C26.3946 16.0196 26.5 15.7652 26.5 15.5ZM6.5 12.5C6.5 10.9087 7.13214 9.38258 8.25736 8.25736C9.38258 7.13214 10.9087 6.5 12.5 6.5H28.5C30.0913 6.5 31.6174 7.13214 32.7426 8.25736C33.8679 9.38258 34.5 10.9087 34.5 12.5V18.506C33.818 18.538 33.14 18.69 32.5 18.964V12.5C32.5 11.4391 32.0786 10.4217 31.3284 9.67157C30.5783 8.92143 29.5609 8.5 28.5 8.5H12.5C11.4391 8.5 10.4217 8.92143 9.67157 9.67157C8.92143 10.4217 8.5 11.4391 8.5 12.5V30.152C8.50033 30.2306 8.52382 30.3074 8.56754 30.3728C8.61127 30.4381 8.67328 30.4891 8.74584 30.5194C8.8184 30.5498 8.89828 30.558 8.9755 30.5432C9.05272 30.5283 9.12385 30.491 9.18 30.436L10.794 28.844L10.79 28.838L12.886 26.778L13.298 26.374L18.398 21.364C18.959 20.8131 19.7138 20.5045 20.5 20.5045C21.2862 20.5045 22.041 20.8131 22.602 21.364L26.092 24.792L24.678 26.208L21.2 22.79C21.0131 22.6068 20.7618 22.5041 20.5 22.5041C20.2382 22.5041 19.9869 22.6068 19.8 22.79L14.288 28.204L10.586 31.86C9.07 33.356 6.5 32.28 6.5 30.152V12.5ZM7.3 34.57C8.038 34.938 8.96 35.24 9.734 35.07C10.236 34.958 10.888 34.684 11.62 34.376C13.39 33.63 15.626 32.69 17.344 33.382C18.618 33.894 18.512 35.344 18.154 36.042C18.084 36.174 18.138 36.362 18.284 36.396C19.0154 36.5447 19.7623 36.6038 20.508 36.572C20.5161 36.4776 20.5315 36.384 20.554 36.292L21.304 33.296C21.4958 32.5232 21.8956 31.8177 22.46 31.256L32.12 21.596C32.4664 21.2444 32.8789 20.9648 33.3339 20.7733C33.7888 20.5819 34.2771 20.4824 34.7707 20.4805C35.2643 20.4787 35.7533 20.5746 36.2097 20.7627C36.666 20.9508 37.0806 21.2274 37.4296 21.5764C37.7785 21.9255 38.0549 22.3402 38.2428 22.7966C38.4307 23.253 38.5265 23.7421 38.5245 24.2357C38.5225 24.7293 38.4228 25.2176 38.2311 25.6725C38.0395 26.1273 37.7598 26.5398 37.408 26.886L27.748 36.544C27.1853 37.107 26.4802 37.5066 25.708 37.7L23.264 38.31C21.022 38.966 17.676 38.754 16.638 37.944C15.74 37.244 15.704 36.17 16.006 35.456C16.074 35.296 15.954 35.09 15.784 35.116C14.794 35.256 13.984 35.616 13.184 35.97C12.014 36.49 10.872 36.996 9.232 36.792C7.81 36.616 7.018 35.874 6.582 35.142C6.338 34.734 6.874 34.358 7.3 34.57Z" fill="#857045"/>
</svg>
