<svg width="41" height="40" viewBox="0 0 41 40" fill="none" xmlns="http://www.w3.org/2000/svg">
<g clip-path="url(#clip0_116_177)">
<rect x="0.5" y="16.6665" width="23.3333" height="23.3333" fill="#7595FD"/>
<path d="M32.1513 3.3335H15.5163C13.6646 3.3335 12.1663 4.83183 12.1663 6.6835V16.0785L4.32964 23.8152C4.09483 24.0474 3.93431 24.3441 3.86845 24.6678C3.80258 24.9914 3.83434 25.3273 3.9597 25.6328C4.08505 25.9383 4.29835 26.1997 4.57253 26.3838C4.8467 26.5679 5.16939 26.6664 5.49964 26.6668V35.0002C5.49964 35.4422 5.67524 35.8661 5.9878 36.1787C6.30036 36.4912 6.72428 36.6668 7.16631 36.6668H33.833C34.275 36.6668 34.6989 36.4912 35.0115 36.1787C35.324 35.8661 35.4996 35.4422 35.4996 35.0002V6.68183C35.4996 4.83183 34.003 3.3335 32.1513 3.3335ZM18.703 25.1852V33.3335H8.83298V24.0535L13.8113 19.1385L18.703 24.1435V25.1852V25.1852ZM22.1663 15.0002H18.833V11.6668H22.1663V15.0002ZM28.833 28.3335H25.4996V25.0002H28.833V28.3335ZM28.833 21.6668H25.4996V18.3335H28.833V21.6668ZM28.833 15.0002H25.4996V11.6668H28.833V15.0002Z" fill="#292E3D"/>
<path d="M12.167 25H15.5003V28.3333H12.167V25Z" fill="#14171F"/>
</g>
<defs>
<clipPath id="clip0_116_177">
<rect width="40" height="40" fill="white" transform="translate(0.5)"/>
</clipPath>
</defs>
</svg>
