<svg width="41" height="41" viewBox="0 0 41 41" fill="none" xmlns="http://www.w3.org/2000/svg">
<path d="M29.666 32.1665H31.3327V27.9998H35.4993V26.3332H31.3327V22.1665H29.666V26.3332H25.4993V27.9998H29.666V32.1665ZM30.4993 35.4998C28.1938 35.4998 26.2282 34.6871 24.6027 33.0615C22.9771 31.4359 22.1649 29.4709 22.166 27.1665C22.166 24.8609 22.9788 22.8954 24.6043 21.2698C26.2299 19.6443 28.1949 18.8321 30.4993 18.8332C32.8049 18.8332 34.7705 19.6459 36.396 21.2715C38.0216 22.8971 38.8338 24.8621 38.8327 27.1665C38.8327 29.4721 38.0199 31.4376 36.3943 33.0632C34.7688 34.6887 32.8038 35.5009 30.4993 35.4998ZM7.16602 32.1665V12.1665L20.4993 2.1665L33.8327 12.1665V15.9998C33.2771 15.8332 32.7216 15.7082 32.166 15.6248C31.6105 15.5415 31.0549 15.4998 30.4993 15.4998C27.2493 15.4998 24.4921 16.6321 22.2277 18.8965C19.9632 21.1609 18.8316 23.9176 18.8327 27.1665C18.8327 28.0554 18.9232 28.9165 19.1043 29.7498C19.2855 30.5832 19.5699 31.3887 19.9577 32.1665H7.16602Z" fill="#857045"/>
</svg>
