<svg width="40" height="40" viewBox="0 0 40 40" fill="none" xmlns="http://www.w3.org/2000/svg">
<path d="M21.6667 31.6665L15 28.3332M15 28.3332L5 33.3332V11.6665L15 6.6665M15 28.3332V6.6665M15 6.6665L25 11.6665M25 11.6665L35 6.6665V17.4998M25 11.6665V19.9998M35 24.9998H30.8333C30.1703 24.9998 29.5344 25.2632 29.0656 25.7321C28.5967 26.2009 28.3333 26.8368 28.3333 27.4998C28.3333 28.1629 28.5967 28.7988 29.0656 29.2676C29.5344 29.7364 30.1703 29.9998 30.8333 29.9998H32.5C33.163 29.9998 33.7989 30.2632 34.2678 30.7321C34.7366 31.2009 35 31.8368 35 32.4998C35 33.1629 34.7366 33.7988 34.2678 34.2676C33.7989 34.7364 33.163 34.9998 32.5 34.9998H28.3333M31.6667 34.9998V36.6665M31.6667 23.3332V24.9998" stroke="#857045" stroke-width="4.16667" stroke-linecap="round" stroke-linejoin="round"/>
</svg>
