<svg width="40" height="41" viewBox="0 0 40 41" fill="none" xmlns="http://www.w3.org/2000/svg">
<path d="M0 0.5V40.5H12.2944V11.8655L16.4502 7.70961V0.5H13.8528V4.65584H9.52381V0.5H6.92641V4.65584H2.5974V0.5H0ZM14.4918 11.8721L13.8528 12.5111V13.4131C14.2468 13.3595 14.7131 13.5189 15.0007 13.6816C15.3295 13.9257 15.9782 14.3719 15.821 14.8567C15.4363 15.1647 14.7683 14.9423 14.3934 14.7307C14.1723 14.6028 13.9903 14.4463 13.8528 14.29V16.2081C14.5068 16.4721 15.1261 16.626 15.7449 16.5439C16.0488 17.2301 16.6733 17.8438 17.2096 18.1613C17.9334 18.5029 18.641 18.7186 19.3418 18.6257C19.6454 19.312 20.2704 19.9255 20.8066 20.243C21.5304 20.5845 22.2379 20.8003 22.9386 20.7074C23.2425 21.3936 23.8671 22.0073 24.4034 22.3248C25.1272 22.6664 25.8348 22.8819 26.5356 22.7889C26.8391 23.4753 27.4641 24.0889 28.0003 24.4064C28.7242 24.748 29.4317 24.9637 30.1324 24.8707C30.2436 25.1523 30.422 25.4357 30.5921 25.6456L13.8528 29.7842V32.9951L37.827 27.0675L37.079 24.0418L35.2761 24.4876C35.0068 23.7427 34.3351 23.0786 33.7655 22.7415C33.0417 22.3998 32.3341 22.1843 31.6333 22.2772C31.3298 21.5909 30.705 20.9771 30.1687 20.6597C29.4449 20.318 28.7374 20.1027 28.0365 20.1956C27.7326 19.5094 27.1081 18.8955 26.5718 18.578C25.848 18.2366 25.1403 18.0204 24.4396 18.1139C24.1361 17.4277 23.5113 16.8139 22.975 16.4964C22.2512 16.1548 21.5436 15.9392 20.8428 16.0321C20.5389 15.3459 19.9145 14.732 19.378 14.4145C18.6542 14.073 17.9466 13.8576 17.2458 13.9505C16.9423 13.2642 16.3176 12.6504 15.7812 12.3329C15.3642 12.0915 14.9268 11.9358 14.4918 11.8721ZM18.5974 15.7635C18.9265 16.0076 19.5751 16.4535 19.4179 16.9385C19.0332 17.2462 18.3651 17.0241 17.9904 16.8126C17.6614 16.5684 17.0125 16.1225 17.17 15.6375C17.5437 15.3326 18.2003 15.5387 18.5974 15.7635ZM22.1945 17.8451C22.5233 18.0892 23.1719 18.5354 23.0147 19.0202C22.63 19.3281 21.9621 19.1058 21.5872 18.8942C21.258 18.65 20.6097 18.2043 20.7667 17.7191C21.1407 17.4142 21.7974 17.6203 22.1944 17.8451H22.1945ZM25.7913 19.9269C26.1201 20.171 26.7689 20.617 26.6117 21.1018C26.2269 21.4098 25.559 21.1874 25.1842 20.9758C24.855 20.7317 24.2063 20.2861 24.3636 19.8008C24.7375 19.496 25.3943 19.7022 25.7913 19.9269ZM29.3882 22.0086C29.7172 22.2527 30.3656 22.6986 30.2085 23.1836C29.8237 23.4913 29.1557 23.2692 28.781 23.0577C28.452 22.8135 27.8034 22.3676 27.9604 21.8826C28.3358 21.5819 28.9787 21.7767 29.3882 22.0086ZM32.985 24.0902C33.2863 24.2992 33.5964 24.5565 33.7524 24.8643L32.4611 25.1836C32.107 24.904 31.386 24.4929 31.5574 23.9642C31.9326 23.6636 32.5755 23.8584 32.985 24.0902ZM34.632 33.4004V34.9589H40V33.4004H34.632ZM28.1274 36.5163C26.2266 36.5591 24.4597 38.2186 22.7706 38.2489C20.7736 38.0231 19.0364 36.5456 17.2294 36.5173C16.011 36.6311 14.9197 36.8987 13.8528 37.2737V38.9629C14.955 38.5092 16.13 38.097 17.2294 38.0758C19.2264 38.3016 20.9636 39.779 22.7706 39.8074C24.7417 39.8743 26.5681 38.107 28.3117 38.0758C28.7927 38.0758 29.5483 38.2463 30.3238 38.481C30.8398 38.1216 31.3184 37.7353 31.7477 37.3089C30.6464 36.9043 29.3998 36.5173 28.3117 36.5173C28.2503 36.5152 28.1888 36.5149 28.1274 36.5163ZM34.3145 36.5173C33.289 38.305 31.74 39.5114 30.0594 40.5H40V36.5173H34.3145Z" fill="#857045"/>
</svg>
