<svg width="19" height="30" viewBox="0 0 19 30" fill="none" xmlns="http://www.w3.org/2000/svg">
<path d="M0.0996094 26.3L0.516276 30L3.21628 27.4333L7.83294 14.7667C6.69961 14.4833 5.69961 13.9167 4.88294 13.1333L0.0996094 26.3ZM14.1163 13.1333C13.2996 13.9167 12.2829 14.4833 11.1663 14.7667L15.7829 27.4333L18.4829 30L18.9163 26.3L14.1163 13.1333V13.1333ZM14.3996 9.33333C14.8996 6.73333 13.3996 4.43333 11.1663 3.63333V1.66667C11.1663 0.75 10.4163 0 9.49961 0C8.58294 0 7.83294 0.75 7.83294 1.66667V3.63333C5.89961 4.33333 4.49961 6.16667 4.49961 8.33333C4.49961 11.4 7.26628 13.8333 10.4329 13.25C12.3996 12.8833 14.0163 11.3 14.3996 9.33333V9.33333ZM9.49961 10C8.58294 10 7.83294 9.25 7.83294 8.33333C7.83294 7.41667 8.58294 6.66667 9.49961 6.66667C10.4163 6.66667 11.1663 7.41667 11.1663 8.33333C11.1663 9.25 10.4163 10 9.49961 10Z" fill="#292E3D"/>
</svg>
