<svg width="82" height="67" viewBox="0 0 82 67" fill="none" xmlns="http://www.w3.org/2000/svg">
<path d="M13.6667 61.3942V32.4737C13.6679 31.589 14.1003 30.7408 14.8689 30.1153C15.6375 29.4897 16.6797 29.1378 17.7667 29.1368H72.4333C73.5203 29.1378 74.5625 29.4897 75.3311 30.1153C76.0997 30.7408 76.5321 31.589 76.5333 32.4737V39.1477H79.2667V32.4737C79.2646 30.9992 78.544 29.5856 77.263 28.5429C75.9819 27.5003 74.245 26.9138 72.4333 26.9121V10.0364C72.4348 9.598 72.3294 9.16371 72.1233 8.75869C71.9171 8.35366 71.6143 7.98593 71.2324 7.67678L63.267 1.19375C62.8871 0.882899 62.4353 0.636454 61.9377 0.468679C61.44 0.300904 60.9065 0.215129 60.3678 0.216321H19.1333C18.0463 0.217333 17.0042 0.569231 16.2356 1.19482C15.4669 1.8204 15.0346 2.66858 15.0333 3.55329V16.9012H6.83333C5.02165 16.9029 3.28475 17.4893 2.00369 18.532C0.722639 19.5746 0.00204419 20.9883 0 22.4628V61.3942C0.00204419 62.8687 0.722639 64.2823 2.00369 65.325C3.28475 66.3676 5.02165 66.9541 6.83333 66.9558H60.1333V64.7311H12.2963C13.187 63.7698 13.6682 62.5982 13.6667 61.3942ZM61.5 2.90168L67.7673 8.00259H62.8667C62.5043 8.00225 62.1569 7.88496 61.9007 7.67643C61.6445 7.4679 61.5004 7.18517 61.5 6.89027V2.90168ZM61.5 24.6875H66.9667V22.4628H61.5V19.1258H66.9667V16.9012H61.5V10.0359C61.9388 10.1627 62.401 10.2274 62.8667 10.2272H69.7V26.9121H61.5V24.6875ZM58.7667 2.44097V6.42956L53.866 2.44097H58.7667ZM50.5667 2.90168L56.8339 8.00259H51.9333C51.571 8.00225 51.2236 7.88496 50.9674 7.67643C50.7112 7.4679 50.5671 7.18517 50.5667 6.89027V2.90168ZM17.7667 3.55329C17.7671 3.25839 17.9112 2.97566 18.1674 2.76713C18.4236 2.55861 18.771 2.44131 19.1333 2.44097H47.8333V6.89027C47.8345 7.77498 48.2669 8.62318 49.0355 9.24877C49.8042 9.87436 50.8463 10.2263 51.9333 10.2272H58.7667V26.9121H17.7667V3.55329ZM10.9333 61.3942C10.9333 62.2792 10.5014 63.128 9.73247 63.7538C8.96357 64.3796 7.92072 64.7311 6.83333 64.7311C5.74595 64.7311 4.70309 64.3796 3.9342 63.7538C3.1653 63.128 2.73333 62.2792 2.73333 61.3942V22.4628C2.73458 21.5781 3.16694 20.7299 3.93557 20.1043C4.7042 19.4787 5.74633 19.1269 6.83333 19.1258H15.0333V27.3779C13.8157 27.8114 12.7795 28.5242 12.0514 29.4291C11.3233 30.3341 10.9348 31.392 10.9333 32.4737V61.3942Z" fill="#ED45DC"/>
<path d="M76.5334 51.6437V46.6732L72.3873 45.864L71.6618 44.4392L73.897 41.4705L69.5795 37.9564L65.9317 39.7756L64.1812 39.1851L63.187 35.8105H57.0798L56.0857 39.1851L54.3351 39.7755L50.6876 37.9563L46.3699 41.4705L48.6051 44.4392L47.8796 45.864L43.7334 46.6732V51.6437L47.8795 52.4528L48.605 53.8777L46.3698 56.8463L50.6875 60.3605L54.3351 58.5413L56.0857 59.1317L57.0798 62.5063H63.187L64.1811 59.1318L65.9317 58.5414L69.5793 60.3606L73.897 56.8464L71.6618 53.8777L72.3873 52.4528L76.5334 51.6437ZM70.4406 56.5135L69.1702 57.5474L66.1721 56.0522L61.8478 57.5106L61.0315 60.2817H59.2353L58.419 57.5106L54.0947 56.0521L51.0966 57.5474L49.8262 56.5134L51.6633 54.0733L49.8714 50.5538L46.4667 49.8894V48.4275L49.8714 47.7631L51.6634 44.2435L49.8263 41.8034L51.0967 40.7694L54.0946 42.2647L58.419 40.8062L59.2353 38.0352H61.0315L61.8479 40.8063L66.1721 42.2647L69.1702 40.7695L70.4406 41.8035L68.6035 44.2435L70.3954 47.7631L73.8001 48.4275V49.8894L70.3954 50.5538L68.6035 54.0733L70.4406 56.5135Z" fill="#ED45DC"/>
<path d="M60.1331 43.5967C58.7816 43.5967 57.4605 43.9229 56.3367 44.534C55.213 45.1451 54.3372 46.0137 53.82 47.03C53.3028 48.0462 53.1674 49.1645 53.4311 50.2433C53.6948 51.3222 54.3456 52.3132 55.3012 53.091C56.2569 53.8688 57.4745 54.3985 58.8 54.6131C60.1256 54.8277 61.4995 54.7175 62.7481 54.2966C63.9968 53.8756 65.064 53.1628 65.8149 52.2482C66.5657 51.3336 66.9665 50.2583 66.9665 49.1583C66.9644 47.6838 66.2438 46.2701 64.9628 45.2275C63.6817 44.1848 61.9448 43.5983 60.1331 43.5967ZM60.1331 52.4953C59.3222 52.4953 58.5295 52.2996 57.8553 51.9329C57.1811 51.5662 56.6556 51.0451 56.3452 50.4353C56.0349 49.8256 55.9537 49.1546 56.1119 48.5073C56.2701 47.86 56.6606 47.2654 57.234 46.7987C57.8074 46.332 58.538 46.0142 59.3333 45.8854C60.1286 45.7567 60.953 45.8228 61.7021 46.0753C62.4513 46.3279 63.0917 46.7556 63.5422 47.3044C63.9927 47.8531 64.2331 48.4983 64.2331 49.1583C64.2319 50.043 63.7995 50.8912 63.0309 51.5168C62.2623 52.1424 61.2201 52.4943 60.1331 52.4953Z" fill="#ED45DC"/>
<path d="M47.8333 11.3394H20.5V13.564H47.8333V11.3394Z" fill="#ED45DC"/>
<path d="M56.0333 16.9009H20.5V19.1255H56.0333V16.9009Z" fill="#ED45DC"/>
<path d="M56.0333 22.4624H20.5V24.6871H56.0333V22.4624Z" fill="#ED45DC"/>
<path d="M52.4805 34.8814L51.3861 32.8428C46.0724 34.7338 41.8979 38.2638 39.7794 42.6577C37.6608 47.0516 37.7713 51.9502 40.0866 56.2779L42.5914 55.3873C40.5663 51.6003 40.4702 47.314 42.3243 43.4694C44.1783 39.6248 47.831 36.5361 52.4805 34.8814Z" fill="#ED45DC"/>
<path d="M57.5802 33.7233L57.2193 31.5181C56.2348 31.625 55.2603 31.7864 54.3027 32.0012L55.0301 34.1456C55.8673 33.9578 56.7193 33.8167 57.5802 33.7233Z" fill="#ED45DC"/>
<path d="M80.1799 42.0396L77.6751 42.9303C79.7003 46.7172 79.7965 51.0035 77.9424 54.8481C76.0883 58.6927 72.4356 61.7814 67.7861 63.4361L68.8805 65.4747C74.1943 63.5838 78.3687 60.0537 80.4873 55.6598C82.6058 51.2658 82.4953 46.3672 80.1799 42.0396Z" fill="#ED45DC"/>
<path d="M62.6865 64.5939L63.0477 66.799C64.0322 66.6921 65.0066 66.5306 65.9641 66.3158L65.2368 64.1714C64.3995 64.3592 63.5474 64.5004 62.6865 64.5939Z" fill="#ED45DC"/>
<path d="M45.1 5.77783H20.5V8.00248H45.1V5.77783Z" fill="#ED45DC"/>
</svg>
