<svg width="83" height="78" viewBox="0 0 83 78" fill="none" xmlns="http://www.w3.org/2000/svg">
<g clip-path="url(#clip0_71_2386)">
<path d="M0 39.0101C0 60.2004 18.5838 77.3774 41.5097 77.3774C64.4355 77.3774 83.0193 60.2004 83.0193 39.0101C83 17.8198 64.4162 0.642822 41.5097 0.642822C18.5838 0.642822 0 17.8198 0 39.0101ZM3.20344 39.0101C3.20344 33.8731 4.39991 29.0036 6.52267 24.5978L24.7977 70.8669C12.0033 65.1234 3.20344 53.0121 3.20344 39.0101ZM41.5097 74.3986C37.7466 74.3986 34.1186 73.8992 30.6836 72.9538L42.1851 42.0959L53.9568 71.9014C54.0339 72.0798 54.1304 72.2403 54.2269 72.383C50.2323 73.703 45.9675 74.3986 41.5097 74.3986ZM72.4634 38.3323C74.644 33.2844 75.3774 29.2355 75.3774 25.6502C75.3774 24.3481 75.2809 23.1352 75.1072 22.0115C78.0984 27.0593 79.7966 32.8385 79.7966 38.9923C79.7966 52.0489 72.1353 63.4646 60.7496 69.5826L72.4634 38.3323ZM64.2039 27.4518C65.6512 29.8062 67.3688 32.8385 67.3688 37.2086C67.3688 40.2409 66.3846 44.058 64.4548 48.6599L60.6338 60.4501L46.778 22.4039C49.0937 22.279 51.1586 22.065 51.1586 22.065C53.2234 21.8331 52.9726 19.0327 50.927 19.1397C50.927 19.1397 44.7131 19.5857 40.7184 19.5857C36.9554 19.5857 30.6257 19.1397 30.6257 19.1397C28.5608 19.0327 28.3292 21.958 30.3748 22.065C30.3748 22.065 32.3239 22.279 34.3887 22.4039L40.3518 37.5118L31.9765 60.7533L18.0242 22.4039C20.3399 22.279 22.4048 22.065 22.4048 22.065C24.4697 21.8331 24.2188 19.0327 22.1539 19.1397C22.1539 19.1397 15.9593 19.5857 11.9454 19.5857C11.2313 19.5857 10.3822 19.5678 9.47524 19.55C16.326 9.93587 28.0977 3.58592 41.4711 3.58592C51.448 3.58592 60.518 7.11764 67.3302 12.879C67.1758 12.8611 67.0021 12.8433 66.8477 12.8433C63.0846 12.8433 60.4215 15.8756 60.4215 19.1219C60.4408 22.065 62.2548 24.5443 64.2039 27.4518Z" fill="#9C9797"/>
</g>
<defs>
<clipPath id="clip0_71_2386">
<rect width="83" height="76.7167" fill="white" transform="translate(0 0.642822)"/>
</clipPath>
</defs>
</svg>
