<svg width="101" height="91" viewBox="0 0 101 91" fill="none" xmlns="http://www.w3.org/2000/svg">
<path opacity="0.2" fill-rule="evenodd" clip-rule="evenodd" d="M27.933 57.1704L100.053 60.2904C100.921 60.3613 101.079 60.9995 100.369 61.7795L79.4587 84.5413C78.7486 85.3213 77.4072 85.9595 76.5392 85.8886L5.83921 78.0177C4.97124 77.9468 4.73452 77.2377 5.52358 76.5286L25.0134 58.4468C25.8025 57.8086 27.065 57.0995 27.933 57.1704Z" fill="black"/>
<path fill-rule="evenodd" clip-rule="evenodd" d="M2.84082 8.52703L4.41895 7.10886L4.65566 6.89613L5.0502 6.75431L5.36582 6.61249L5.76035 6.47068L6.15488 6.39977L6.54941 6.32886H6.94395H7.41738L77.2494 14.2707L77.7229 14.3416L78.1174 14.4125L78.5119 14.5543L78.9064 14.767L79.301 14.9088L79.6166 15.1925L79.9322 15.4052L80.2478 15.6888L80.5635 16.0434L80.8002 16.327L80.958 16.6816L81.1947 17.0361L81.2736 17.4616L81.4314 17.8161L81.5104 18.1707V18.5961V81.2796V81.6342L81.4314 82.0596L81.2736 82.4142L81.1947 82.6978L80.958 83.0523L80.8002 83.336L80.5635 83.6196L78.9854 85.0378L79.2221 84.7542L79.3799 84.4705L79.6166 84.116L79.6955 83.8323L79.8533 83.4778L79.9322 83.0523V82.6978V20.0143V19.5888L79.8533 19.2343L79.6955 18.8797L79.6166 18.4543L79.3799 18.0997L79.2221 17.7452L78.9854 17.4616L78.6697 17.107L78.3541 16.8234L78.0385 16.6107L77.7229 16.327L77.3283 16.1852L76.9338 15.9725L76.5393 15.8307L76.1447 15.7597L75.6713 15.6888L5.83926 7.74704H5.36582H4.97129L4.57676 7.81795L4.18223 7.88885L3.7877 8.03067L3.47207 8.17249L3.07754 8.31431L2.84082 8.52703Z" fill="url(#paint0_linear_71_2369)"/>
<path fill-rule="evenodd" clip-rule="evenodd" d="M2.84082 8.52693L3.62988 7.81784L3.8666 7.60511L4.26113 7.4633L4.57676 7.32148L4.97129 7.17966L5.36582 7.10875L5.76035 7.03784H6.15488H6.62832L76.4604 14.9796L76.9338 15.0506L77.3283 15.1215L77.7229 15.2633L78.1174 15.476L78.5119 15.6178L78.8275 15.9015L79.1432 16.1142L79.4588 16.3978L79.7744 16.7524L80.0111 17.036L80.1689 17.3905L80.4057 17.7451L80.4846 18.1705L80.6424 18.5251L80.7213 18.8796V19.3051V81.9886V82.3431L80.6424 82.7686L80.4846 83.1231L80.4057 83.4068L80.1689 83.7613L80.0111 84.045L79.7744 84.3286L78.9854 85.0377L79.2221 84.7541L79.3799 84.4704L79.6166 84.1159L79.6955 83.8322L79.8533 83.4777L79.9322 83.0522V82.6977V20.0142V19.5887L79.8533 19.2342L79.6955 18.8796L79.6166 18.4542L79.3799 18.0996L79.2221 17.7451L78.9854 17.4615L78.6697 17.1069L78.3541 16.8233L78.0385 16.6105L77.7229 16.3269L77.3283 16.1851L76.9338 15.9724L76.5393 15.8306L76.1447 15.7596L75.6713 15.6887L5.83926 7.74693H5.36582H4.97129L4.57676 7.81784L4.18223 7.88875L3.7877 8.03057L3.47207 8.17239L3.07754 8.3142L2.84082 8.52693Z" fill="#CCCCCC"/>
<path fill-rule="evenodd" clip-rule="evenodd" d="M5.83906 7.74696L75.6711 15.6178C78.0383 15.9015 79.932 17.816 79.932 20.0142V82.6977C79.932 84.825 78.0383 86.385 75.6711 86.1013L5.83906 78.1595C3.47188 77.8759 1.57812 75.9614 1.57812 73.7632V11.1506C1.57812 9.02332 3.47188 7.46332 5.83906 7.74696Z" fill="url(#paint1_linear_71_2369)"/>
<path fill-rule="evenodd" clip-rule="evenodd" d="M38.4273 44.2651L26.9859 42.9888C26.6703 42.9888 26.4336 43.1306 26.4336 43.4142V48.4488C26.4336 48.7324 26.6703 48.9451 26.9859 49.016L31.4836 49.5124V55.7524C31.4836 55.7524 30.4578 55.9651 27.6961 55.6106C24.4609 55.256 19.8844 53.6251 19.8844 44.6197C19.8844 35.6142 24.6188 34.9052 29.1164 35.4724C32.9828 35.8979 34.6398 36.6779 35.7445 37.1033C36.0602 37.2452 36.3758 36.9615 36.3758 36.6779L37.6383 31.927C37.6383 31.7852 37.5594 31.6433 37.4016 31.5015C37.007 31.147 34.3242 29.587 27.6961 28.807C20.0422 27.9561 12.2305 30.0124 12.2305 44.0524C12.2305 58.0924 21.2258 61.2124 28.8008 62.0633C35.0344 62.7724 38.8219 60.7869 38.8219 60.7869C38.9797 60.716 38.9797 60.5033 38.9797 60.4324V44.8324C38.9797 44.5488 38.743 44.336 38.4273 44.2651ZM50.5789 37.1742C50.5789 35.1179 48.6852 33.2033 46.3969 32.9197C44.1086 32.6361 42.2148 34.1252 42.2148 36.2524C42.2148 38.3797 44.1086 40.2233 46.3969 40.507C48.7641 40.7197 50.5789 39.2306 50.5789 37.1742ZM50.1055 57.0287C50.1055 56.2488 50.1055 43.0597 50.1055 43.0597C50.1055 42.7761 49.8687 42.5633 49.5531 42.4924L43.1617 41.7833C42.8461 41.7833 42.6094 41.9961 42.6094 42.2797C42.6094 42.2797 42.6094 59.0851 42.6094 62.3469C42.6094 62.9142 43.0039 63.1269 43.5563 63.1978C43.5563 63.1978 46.318 63.4815 49.3164 63.836C49.9477 63.9069 50.1055 63.6233 50.1055 63.1269C50.1055 62.0633 50.1055 57.8087 50.1055 57.0287ZM68.6484 44.6197L63.8352 44.1233V38.3797C63.8352 38.167 63.6773 38.0252 63.4406 38.0252L56.8125 37.2452C56.5758 37.2452 56.418 37.3161 56.418 37.5288V43.4142C56.418 43.4142 53.1039 43.7688 52.8672 43.7688C52.6305 43.7688 52.4727 43.9815 52.4727 44.1942V47.9524C52.4727 48.236 52.7094 48.4488 53.025 48.5197L56.418 48.8742C56.418 48.8742 56.418 52.7742 56.418 57.8088C56.418 64.4742 61.6258 65.6796 65.0977 66.1051C66.6758 66.3178 68.6484 66.0342 68.9641 65.9633C69.1219 65.8924 69.2797 65.7505 69.2797 65.5378V61.4251C69.2797 61.1415 69.043 60.9287 68.7273 60.8578C68.4117 60.8578 67.7016 60.8578 66.9914 60.7869C64.6242 60.5033 63.8352 59.4397 63.8352 58.1633C63.8352 56.8869 63.8352 49.6542 63.8352 49.6542L68.6484 50.2215C68.9641 50.2215 69.2008 50.0797 69.2008 49.796V45.116C69.2008 44.9033 68.9641 44.6906 68.6484 44.6197Z" fill="white"/>
<path fill-rule="evenodd" clip-rule="evenodd" d="M1.2627 7.25053L2.84082 5.76144L3.15645 5.54872L3.55098 5.4069L3.8666 5.19417L4.26113 5.12326L4.65566 4.98145H5.0502H5.52363H5.91816L77.0127 12.9942L77.4072 13.0651L77.8807 13.2069L78.2752 13.3487L78.6697 13.4905L79.0643 13.7032L79.3799 13.9869L79.7744 14.2705L80.09 14.5542L80.3268 14.8378L80.5635 15.1923L80.8002 15.5469L80.958 15.9014L81.1158 16.256L81.1947 16.6814L81.2736 17.036L81.3525 17.4614V81.2086L81.2736 81.5631L81.1947 81.9886L81.1158 82.3431L80.958 82.6976L80.8002 83.0522L80.5635 83.3358L80.3268 83.6195L78.7486 85.0376L78.9854 84.754L79.2221 84.4704L79.3799 84.1158L79.5377 83.7613L79.6166 83.4067L79.6955 83.0522V82.6267V18.8796V18.5251L79.6166 18.0996L79.5377 17.6741L79.3799 17.3196L79.2221 16.9651L78.9854 16.6105L78.7486 16.256L78.433 15.9723L78.1174 15.6887L77.8018 15.4051L77.4861 15.1923L77.0916 14.9796L76.6971 14.7669L76.2236 14.6251L75.8291 14.5542L75.3557 14.4832L4.34004 6.39962H3.8666H3.47207L3.07754 6.47053L2.68301 6.54144L2.28848 6.68326L1.89395 6.82508L1.57832 7.0378L1.2627 7.25053Z" fill="url(#paint2_linear_71_2369)"/>
<path fill-rule="evenodd" clip-rule="evenodd" d="M1.2627 7.25067L2.05176 6.54158L2.36738 6.32885L2.68301 6.11613L3.07754 5.97431L3.47207 5.83249L3.8666 5.76158L4.26113 5.69067H4.65566H5.1291L76.2236 13.7743L76.6182 13.8452L77.0916 13.9161L77.4861 14.0579L77.8807 14.2707L78.2752 14.4834L78.5908 14.6961L78.9064 14.9797L79.2221 15.2634L79.5377 15.547L79.7744 15.9016L80.0111 16.2561L80.1689 16.6107L80.3268 16.9652L80.4057 17.3907L80.4846 17.7452V18.1706V81.9178V82.3432L80.4057 82.6978L80.3268 83.0523L80.1689 83.4069L80.0111 83.7614L79.7744 84.0451L79.5377 84.3287L78.7486 85.0378L78.9854 84.7542L79.2221 84.4705L79.3799 84.116L79.5377 83.7614L79.6166 83.4069L79.6955 83.0523V82.6269V18.8797V18.5252L79.6166 18.0997L79.5377 17.6743L79.3799 17.3197L79.2221 16.9652L78.9854 16.6107L78.7486 16.2561L78.433 15.9725L78.1174 15.6888L77.8018 15.4052L77.4861 15.1925L77.0916 14.9797L76.6971 14.767L76.2236 14.6252L75.8291 14.5543L75.3557 14.4834L4.34004 6.39976H3.8666H3.47207L3.07754 6.47067L2.68301 6.54158L2.28848 6.6834L1.89395 6.82522L1.57832 7.03794L1.2627 7.25067Z" fill="#CCCCCC"/>
<path fill-rule="evenodd" clip-rule="evenodd" d="M4.33984 6.39954L75.4344 14.4123C77.8016 14.6959 79.7742 16.6813 79.7742 18.8795V82.6267C79.7742 84.8248 77.8016 86.3848 75.4344 86.1012L4.33984 78.0885C1.97266 77.8048 0 75.8194 0 73.6212V9.87408C0 7.74681 1.97266 6.18681 4.33984 6.39954Z" fill="url(#paint3_linear_71_2369)"/>
<path fill-rule="evenodd" clip-rule="evenodd" d="M37.4805 43.5561L25.8023 42.2088C25.4867 42.2088 25.25 42.3506 25.25 42.6342V47.7397C25.25 48.0233 25.4867 48.236 25.8023 48.307L30.3789 48.8033V55.1851C30.3789 55.1851 29.3531 55.3979 26.5125 55.0433C23.1984 54.6888 18.543 53.0579 18.543 43.8397C18.543 34.6215 23.3563 33.9834 27.9328 34.4797C31.8781 34.9052 33.5352 35.7561 34.6398 36.1815C34.9555 36.3233 35.2711 36.0397 35.2711 35.7561L36.5336 30.9343C36.5336 30.7924 36.4547 30.6506 36.2969 30.5088C35.8234 30.1543 33.2195 28.5234 26.4336 27.7434C18.6219 26.8925 10.6523 28.9488 10.6523 43.2015C10.6523 57.4542 19.8055 60.6451 27.4594 61.496C33.8508 62.2051 37.7172 60.2197 37.7172 60.2197C37.875 60.1488 37.875 59.936 37.875 59.8651V44.1233C38.0328 43.8397 37.7961 43.627 37.4805 43.5561ZM49.8688 36.3233C49.8688 34.1961 47.975 32.2815 45.6078 31.9979C43.2406 31.7143 41.3469 33.2034 41.3469 35.3306C41.3469 37.4579 43.2406 39.3724 45.6078 39.6561C47.975 39.9397 49.8688 38.4506 49.8688 36.3233ZM49.3953 56.5324C49.3953 55.7524 49.3953 42.2797 49.3953 42.2797C49.3953 41.9961 49.1586 41.7833 48.843 41.7124L42.2937 41.0033C41.9781 41.0033 41.7414 41.2161 41.7414 41.4997C41.7414 41.4997 41.7414 58.5888 41.7414 61.8506C41.7414 62.4178 42.1359 62.7015 42.6883 62.7724C42.6883 62.7724 45.45 63.056 48.6062 63.4106C49.2375 63.4815 49.3953 63.1978 49.3953 62.7015C49.3953 61.6378 49.3953 57.3833 49.3953 56.5324ZM68.2539 43.9815L63.3617 43.4142V37.5997C63.3617 37.387 63.2039 37.2452 62.9672 37.2452L56.2602 36.4652C56.0234 36.4652 55.8656 36.5361 55.8656 36.7488V42.7052C55.8656 42.7052 52.4727 43.0597 52.3148 43.0597C52.0781 43.0597 51.9203 43.2724 51.9203 43.4851V47.2433C51.9203 47.527 52.157 47.7397 52.4727 47.8106L55.9445 48.1651C55.9445 48.1651 55.9445 52.136 55.9445 57.3124C55.9445 64.1197 61.2312 65.3251 64.782 65.7506C66.4391 65.9633 68.3328 65.6797 68.6484 65.6087C68.8063 65.5378 68.9641 65.396 68.9641 65.1833V60.9997C68.9641 60.716 68.7273 60.5033 68.4117 60.4324C68.0961 60.4324 67.3859 60.4324 66.5969 60.3615C64.1508 60.0778 63.3617 59.0142 63.3617 57.6669C63.3617 56.3906 63.3617 49.016 63.3617 49.016L68.2539 49.5833C68.5695 49.5833 68.8062 49.4415 68.8062 49.1579V44.407C68.8062 44.2651 68.5695 43.9815 68.2539 43.9815Z" fill="white"/>
<defs>
<linearGradient id="paint0_linear_71_2369" x1="42.1756" y1="6.32886" x2="42.1756" y2="85.0378" gradientUnits="userSpaceOnUse">
<stop stop-color="#B3B3B3"/>
<stop offset="1" stop-color="#B3B3B3" stop-opacity="0"/>
</linearGradient>
<linearGradient id="paint1_linear_71_2369" x1="46.4363" y1="10.5093" x2="37.2065" y2="83.5898" gradientUnits="userSpaceOnUse">
<stop stop-color="#777879"/>
<stop offset="0.3" stop-color="#696867"/>
<stop offset="0.68" stop-color="#303030"/>
<stop offset="1"/>
</linearGradient>
<linearGradient id="paint2_linear_71_2369" x1="41.3076" y1="4.98145" x2="41.3076" y2="85.0376" gradientUnits="userSpaceOnUse">
<stop stop-color="#B3B3B3"/>
<stop offset="1" stop-color="#B3B3B3" stop-opacity="0"/>
</linearGradient>
<linearGradient id="paint3_linear_71_2369" x1="45.6498" y1="9.22647" x2="36.2608" y2="83.5674" gradientUnits="userSpaceOnUse">
<stop stop-color="#C2C6C9"/>
<stop offset="0.3" stop-color="#696867"/>
<stop offset="0.68" stop-color="#303030"/>
<stop offset="1" stop-color="#F5F5F5"/>
</linearGradient>
</defs>
</svg>
