<svg width="80" height="71" viewBox="0 0 80 71" fill="none" xmlns="http://www.w3.org/2000/svg">
<g clip-path="url(#clip0_71_2382)">
<path d="M80 54.5982C80 63.3088 71.9531 70.3596 62.0469 70.3596H17.9531C8.04688 70.3596 0 63.2951 0 54.5982V15.8874C0 7.19049 8.04688 0.125977 17.9531 0.125977H62.0469C71.9531 0.125977 80 7.19049 80 15.8874V54.5982Z" fill="#B3B3B3"/>
<path fill-rule="evenodd" clip-rule="evenodd" d="M37.2498 41.0316C37.2185 41.1413 37.1717 41.2374 37.156 41.3197C35.5623 46.7929 35.3904 48.0001 33.7498 50.5515C32.9685 51.7587 32.0935 52.911 31.1248 53.9946C31.0154 54.1181 30.906 54.2827 30.6873 54.2416C30.4529 54.2004 30.4373 54.0084 30.406 53.8437C30.1404 52.1839 29.9998 50.5104 30.0623 48.8369C30.1404 46.6558 30.4529 45.9013 33.656 34.0494C33.7029 33.8711 33.656 33.7202 33.5779 33.5556C32.8123 31.7311 32.656 29.893 33.3279 28.0137C34.781 23.967 39.9998 23.6652 40.9217 26.9986C41.4842 29.0562 39.9998 31.7586 38.8592 35.7504C37.906 39.0426 42.3279 41.3883 46.1092 38.9877C49.5935 36.7655 50.9373 31.4568 50.6873 27.6982C50.1873 20.1947 40.8123 18.5623 34.8592 20.9903C28.031 23.7613 26.4842 31.1824 29.5623 34.5707C29.9529 34.9959 30.2498 35.2702 30.1248 35.7092C29.9217 36.3951 29.7498 37.0672 29.531 37.7531C29.3748 38.2607 28.8904 38.439 28.3123 38.2332C27.1717 37.8354 26.2342 37.1907 25.4685 36.3539C22.8592 33.5144 22.1092 27.8902 25.5623 23.1303C29.3904 17.849 36.5154 15.7228 43.031 16.3675C50.7967 17.1494 55.7185 21.7997 56.6404 27.0946C57.0623 29.5089 56.7498 35.4486 52.906 39.6461C48.4685 44.4747 41.2967 44.7902 37.9842 41.8272C37.7029 41.5666 37.4998 41.3059 37.2498 41.0316Z" fill="white"/>
</g>
<defs>
<clipPath id="clip0_71_2382">
<rect width="80" height="70.2336" fill="white" transform="translate(0 0.125977)"/>
</clipPath>
</defs>
</svg>
