<svg width="31" height="32" viewBox="0 0 31 32" fill="none" xmlns="http://www.w3.org/2000/svg">
<g clip-path="url(#clip0_71_2128)">
<path d="M28.4168 13.0667C28.4168 13.3334 28.2825 13.6002 28.0138 13.8669L22.3783 19.4668L23.7126 27.6001C23.7229 27.6001 23.7281 27.7335 23.7281 27.8669C23.7281 28.1335 23.6712 28.2667 23.5576 28.4001C23.4542 28.5334 23.2992 28.6668 23.0913 28.6668C22.895 28.6668 22.6883 28.6669 22.4713 28.5335L15.5002 24.6668L8.52956 28.5335C8.30183 28.6669 8.09478 28.6668 7.90852 28.6668C7.69113 28.6668 7.52554 28.5334 7.41175 28.4001C7.30815 28.2667 7.25649 28.1335 7.25649 27.8669C7.25649 27.8669 7.26682 27.7334 7.28749 27.6001L8.62268 19.4668L2.97164 13.8669C2.71292 13.6002 2.5835 13.3334 2.5835 13.0667C2.5835 12.6667 2.87335 12.4001 3.45292 12.4001L11.2463 11.2002L14.7394 3.86686C14.9357 3.46686 15.1902 3.2002 15.5002 3.2002C15.8102 3.2002 16.0646 3.46686 16.261 3.86686L19.7536 11.2002L27.5475 12.4001C28.1275 12.4001 28.4168 12.6667 28.4168 13.0667Z" fill="#E67E22"/>
<path d="M28.4168 11.7332C28.4168 11.9999 28.2825 12.2667 28.0138 12.5334L22.3783 18.1333L23.7126 26.2666C23.7229 26.2666 23.7281 26.4 23.7281 26.5334C23.7281 26.8 23.6712 26.9332 23.5576 27.0666C23.4542 27.1999 23.2992 27.3333 23.0913 27.3333C22.895 27.3333 22.6883 27.3334 22.4713 27.2L15.5002 23.3333L8.52956 27.2C8.30183 27.3334 8.09478 27.3333 7.90852 27.3333C7.69113 27.3333 7.52554 27.1999 7.41175 27.0666C7.30815 26.9332 7.25649 26.8 7.25649 26.5334C7.25649 26.5334 7.26682 26.3999 7.28749 26.2666L8.62268 18.1333L2.97164 12.5334C2.71292 12.2667 2.5835 11.9999 2.5835 11.7332C2.5835 11.3332 2.87335 11.0666 3.45292 11.0666L11.2463 9.8667L14.7394 2.53337C14.9357 2.13337 15.1902 1.8667 15.5002 1.8667C15.8102 1.8667 16.0646 2.13337 16.261 2.53337L19.7536 9.8667L27.5475 11.0666C28.1275 11.0666 28.4168 11.3332 28.4168 11.7332Z" fill="#F1C40F"/>
</g>
<defs>
<clipPath id="clip0_71_2128">
<rect width="31" height="32" fill="white"/>
</clipPath>
</defs>
</svg>
