<svg width="32" height="32" viewBox="0 0 32 32" fill="none" xmlns="http://www.w3.org/2000/svg">
<g clip-path="url(#clip0_71_2142)">
<path d="M29.3332 13.0667C29.3332 13.3334 29.1945 13.6002 28.9172 13.8669L23.0998 19.4668L24.4772 27.6001C24.4878 27.6001 24.4932 27.7335 24.4932 27.8669C24.4932 28.1335 24.4345 28.2667 24.3172 28.4001C24.2105 28.5334 24.0505 28.6668 23.8358 28.6668C23.6332 28.6668 23.4198 28.6669 23.1958 28.5335L15.9998 24.6668L8.80437 28.5335C8.5693 28.6669 8.35557 28.6668 8.1633 28.6668C7.9389 28.6668 7.76797 28.5334 7.6505 28.4001C7.54357 28.2667 7.49024 28.1335 7.49024 27.8669C7.49024 27.8669 7.5009 27.7334 7.52224 27.6001L8.9005 19.4668L3.06717 13.8669C2.8001 13.6002 2.6665 13.3334 2.6665 13.0667C2.6665 12.6667 2.9657 12.4001 3.56397 12.4001L11.6088 11.2002L15.2145 3.86686C15.4172 3.46686 15.6798 3.2002 15.9998 3.2002C16.3198 3.2002 16.5825 3.46686 16.7852 3.86686L20.3905 11.2002L28.4358 12.4001C29.0345 12.4001 29.3332 12.6667 29.3332 13.0667Z" fill="#E67E22"/>
<path d="M29.3332 11.7332C29.3332 11.9999 29.1945 12.2667 28.9172 12.5334L23.0998 18.1333L24.4772 26.2666C24.4878 26.2666 24.4932 26.4 24.4932 26.5334C24.4932 26.8 24.4345 26.9332 24.3172 27.0666C24.2105 27.1999 24.0505 27.3333 23.8358 27.3333C23.6332 27.3333 23.4198 27.3334 23.1958 27.2L15.9998 23.3333L8.80437 27.2C8.5693 27.3334 8.35557 27.3333 8.1633 27.3333C7.9389 27.3333 7.76797 27.1999 7.6505 27.0666C7.54357 26.9332 7.49024 26.8 7.49024 26.5334C7.49024 26.5334 7.5009 26.3999 7.52224 26.2666L8.9005 18.1333L3.06717 12.5334C2.8001 12.2667 2.6665 11.9999 2.6665 11.7332C2.6665 11.3332 2.9657 11.0666 3.56397 11.0666L11.6088 9.8667L15.2145 2.53337C15.4172 2.13337 15.6798 1.8667 15.9998 1.8667C16.3198 1.8667 16.5825 2.13337 16.7852 2.53337L20.3905 9.8667L28.4358 11.0666C29.0345 11.0666 29.3332 11.3332 29.3332 11.7332Z" fill="#F1C40F"/>
</g>
<defs>
<clipPath id="clip0_71_2142">
<rect width="32" height="32" fill="white"/>
</clipPath>
</defs>
</svg>
