<svg width="33" height="32" viewBox="0 0 33 32" fill="none" xmlns="http://www.w3.org/2000/svg">
<g clip-path="url(#clip0_71_2149)">
<path d="M30.25 13.0667C30.25 13.3334 30.107 13.6002 29.821 13.8669L23.8219 19.4668L25.2423 27.6001C25.2533 27.6001 25.2588 27.7335 25.2588 27.8669C25.2588 28.1335 25.1983 28.2667 25.0773 28.4001C24.9673 28.5334 24.8023 28.6668 24.5809 28.6668C24.3719 28.6668 24.1519 28.6669 23.9209 28.5335L16.5 24.6668L9.07968 28.5335C8.83726 28.6669 8.61685 28.6668 8.41858 28.6668C8.18716 28.6668 8.01089 28.5334 7.88975 28.4001C7.77948 28.2667 7.72448 28.1335 7.72448 27.8669C7.72448 27.8669 7.73548 27.7334 7.75748 27.6001L9.17881 19.4668L3.16319 13.8669C2.88777 13.6002 2.75 13.3334 2.75 13.0667C2.75 12.6667 3.05855 12.4001 3.67551 12.4001L11.9717 11.2002L15.6901 3.86686C15.8991 3.46686 16.17 3.2002 16.5 3.2002C16.83 3.2002 17.1009 3.46686 17.3099 3.86686L21.0279 11.2002L29.3246 12.4001C29.942 12.4001 30.25 12.6667 30.25 13.0667Z" fill="#E67E22"/>
<path d="M30.25 11.7332C30.25 11.9999 30.107 12.2667 29.821 12.5334L23.8219 18.1333L25.2423 26.2666C25.2533 26.2666 25.2588 26.4 25.2588 26.5334C25.2588 26.8 25.1983 26.9332 25.0773 27.0666C24.9673 27.1999 24.8023 27.3333 24.5809 27.3333C24.3719 27.3333 24.1519 27.3334 23.9209 27.2L16.5 23.3333L9.07968 27.2C8.83726 27.3334 8.61685 27.3333 8.41858 27.3333C8.18716 27.3333 8.01089 27.1999 7.88975 27.0666C7.77948 26.9332 7.72448 26.8 7.72448 26.5334C7.72448 26.5334 7.73548 26.3999 7.75748 26.2666L9.17881 18.1333L3.16319 12.5334C2.88777 12.2667 2.75 11.9999 2.75 11.7332C2.75 11.3332 3.05855 11.0666 3.67551 11.0666L11.9717 9.8667L15.6901 2.53337C15.8991 2.13337 16.17 1.8667 16.5 1.8667C16.83 1.8667 17.1009 2.13337 17.3099 2.53337L21.0279 9.8667L29.3246 11.0666C29.942 11.0666 30.25 11.3332 30.25 11.7332Z" fill="#F1C40F"/>
</g>
<defs>
<clipPath id="clip0_71_2149">
<rect width="33" height="32" fill="white"/>
</clipPath>
</defs>
</svg>
