<svg width="138" height="150" viewBox="0 0 138 150" fill="none" xmlns="http://www.w3.org/2000/svg">
<path d="M69.2559 91.2585L82.4332 116.197L109.297 108.584V126.929L69.2559 134.67V91.2585Z" fill="#924B35"/>
<path d="M72.1803 96.7928L69.2559 91.2585V134.67L72.1803 134.104V96.7928Z" fill="#723529"/>
<path d="M69.2558 91.2585V134.67L28.7021 126.929V108.584L55.5663 116.197L69.2558 91.2585Z" fill="#924B35"/>
<path d="M30.0498 111.817L56.914 119.43L69.2558 96.9463V91.2585L55.5663 116.197L28.7021 108.584V126.929L30.0498 127.186V111.817Z" fill="#7F3F2E"/>
<path d="M55.5666 50.2239L69.2561 73.4876L29.0555 82.3617L18.9346 58.1396L55.5666 50.2239Z" fill="#FFC592"/>
<path d="M22.9775 60.6349L57.3255 53.2131L55.5666 50.2239L18.9346 58.1396L29.0555 82.3617L31.8025 81.7551L22.9775 60.6349Z" fill="#EFA873"/>
<path d="M119.065 58.1396L109.432 82.3617L69.2559 73.4876L82.4332 50.2239L119.065 58.1396Z" fill="#FFC592"/>
<path d="M83.7809 53.3546L118.025 60.7546L119.065 58.1396L82.4332 50.2239L69.2559 73.4876L72.0299 74.1003L83.7809 53.3546Z" fill="#EFA873"/>
<path d="M82.4332 116.197L69.2559 91.2587L109.432 82.3618L119.065 105.818L109.297 108.584L82.4332 116.197Z" fill="#FFC592"/>
<path d="M73.0967 93.3701L110.547 85.0767L109.432 82.3618L69.2559 91.2587L82.4332 116.197L84.8035 115.525L73.0967 93.3701Z" fill="#EFA873"/>
<path d="M69.2561 91.2587L55.5666 116.197L28.7024 108.584L18.9346 105.818L29.0555 82.3618L69.2561 91.2587Z" fill="#FFC592"/>
<path d="M30.4034 85.4926L67.8699 93.7843L69.2561 91.2587L29.0555 82.3618L18.9346 105.818L21.3393 106.499L30.4034 85.4926Z" fill="#EFA873"/>
<path d="M109.433 82.3617L69.2562 91.2586L29.0557 82.3617L69.2562 73.4875L109.433 82.3617Z" fill="#E5A070"/>
<path d="M70.132 76.3274L103.45 83.6862L109.433 82.3617L69.2562 73.4875L29.0557 82.3617L35.9163 83.8799L70.132 76.3274Z" fill="#D89364"/>
<path d="M92.2012 35.8457C91.4567 35.8457 90.8535 35.1936 90.8535 34.3895V15.9166C90.8535 15.1125 91.4567 14.4604 92.2012 14.4604C92.9456 14.4604 93.5488 15.1125 93.5488 15.9166V34.3895C93.5488 35.1939 92.9456 35.8457 92.2012 35.8457Z" fill="#FFC592"/>
<path d="M101.972 43.7614C101.227 43.7614 100.624 43.1093 100.624 42.3052V21.1937C100.624 20.3896 101.227 19.7375 101.972 19.7375C102.716 19.7375 103.319 20.3896 103.319 21.1937V42.3052C103.319 43.1096 102.716 43.7614 101.972 43.7614Z" fill="#FFC592"/>
<path d="M111.74 27.93C110.995 27.93 110.392 27.2779 110.392 26.4738V15.9166C110.392 15.1125 110.995 14.4604 111.74 14.4604C112.484 14.4604 113.087 15.1125 113.087 15.9166V26.4738C113.087 27.2779 112.484 27.93 111.74 27.93Z" fill="#FFC592"/>
<path d="M45.7988 35.8457C45.0547 35.8457 44.4512 35.1936 44.4512 34.3895V15.9166C44.4512 15.1125 45.0547 14.4604 45.7988 14.4604C46.543 14.4604 47.1465 15.1125 47.1465 15.9166V34.3895C47.1465 35.1939 46.543 35.8457 45.7988 35.8457Z" fill="#FFC592"/>
<path d="M36.0283 43.7614C35.2841 43.7614 34.6807 43.1093 34.6807 42.3052V21.1937C34.6807 20.3896 35.2841 19.7375 36.0283 19.7375C36.7725 19.7375 37.376 20.3896 37.376 21.1937V42.3052C37.376 43.1096 36.7725 43.7614 36.0283 43.7614Z" fill="#FFC592"/>
<path d="M26.2603 27.93C25.5161 27.93 24.9126 27.2779 24.9126 26.4738V15.9166C24.9126 15.1125 25.5161 14.4604 26.2603 14.4604C27.0044 14.4604 27.6079 15.1125 27.6079 15.9166V26.4738C27.6079 27.2779 27.0044 27.93 26.2603 27.93Z" fill="#FFC592"/>
<path d="M78.8934 106.499C78.2896 106.499 77.7401 106.057 77.587 105.395C77.4064 104.615 77.8454 103.824 78.5675 103.63L107.876 95.7139C108.598 95.5191 109.33 95.9932 109.511 96.7734C109.691 97.5539 109.252 98.3446 108.53 98.5392L79.2211 106.455C79.1117 106.485 79.0015 106.499 78.8934 106.499Z" fill="#EFA873"/>
</svg>
