<svg width="79" height="85" viewBox="0 0 79 85" fill="none" xmlns="http://www.w3.org/2000/svg">
<g clip-path="url(#clip0_71_2390)">
<path d="M39.4991 84.683C61.312 84.683 78.9948 65.8159 78.9948 42.5422C78.9948 19.2685 61.312 0.401367 39.4991 0.401367C17.6862 0.401367 0.00341797 19.2685 0.00341797 42.5422C0.00341797 65.8159 17.6862 84.683 39.4991 84.683Z" fill="#B3B3B3"/>
<path d="M59.1424 38.9732L58.8079 38.2409L58.2512 37.776C57.5217 37.1676 53.8385 37.8142 52.8473 36.8581C52.1426 36.1693 52.0339 34.9287 51.8216 33.2561C51.4266 29.9966 51.1748 29.8307 50.6972 28.7323C48.963 24.8156 44.2553 21.8721 41.0226 21.4639H32.2626C25.3727 21.4639 19.7393 27.4627 19.7393 34.7838V50.3216C19.7393 57.6295 25.3714 63.6165 32.2626 63.6165H46.6535C53.5435 63.6165 59.1411 57.6295 59.1794 50.3216L59.2572 39.5592L59.1424 38.9732ZM32.1565 32.0221H39.4427C40.8313 32.0221 41.9582 33.2035 41.9582 34.6429C41.9582 36.0797 40.8313 37.2742 39.4427 37.2742H32.1565C30.7654 37.2742 29.6397 36.0797 29.6397 34.6429C29.6397 33.2035 30.7654 32.0221 32.1565 32.0221ZM46.8893 53.0728H32.1466C30.7605 53.0728 29.6397 51.8664 29.6397 50.4349C29.6397 48.9809 30.7605 47.7969 32.1466 47.7969H46.8893C48.2668 47.7969 49.3839 48.9796 49.3839 50.4349C49.3839 51.8664 48.2668 53.0728 46.8893 53.0728Z" fill="white"/>
</g>
<defs>
<clipPath id="clip0_71_2390">
<rect width="79" height="84.2803" fill="white" transform="translate(0 0.401367)"/>
</clipPath>
</defs>
</svg>
