<svg width="97" height="113" viewBox="0 0 97 113" fill="none" xmlns="http://www.w3.org/2000/svg">
<g clip-path="url(#clip0_71_2528)">
<path d="M15.0835 31.7565C15.9763 31.7565 16.7001 30.918 16.7001 29.8836C16.7001 28.8493 15.9763 28.0107 15.0835 28.0107C14.1906 28.0107 13.4668 28.8493 13.4668 29.8836C13.4668 30.918 14.1906 31.7565 15.0835 31.7565Z" fill="#48CDA5"/>
<path d="M25.8667 31.7565C26.7595 31.7565 27.4833 30.918 27.4833 29.8836C27.4833 28.8493 26.7595 28.0107 25.8667 28.0107C24.9738 28.0107 24.25 28.8493 24.25 29.8836C24.25 30.918 24.9738 31.7565 25.8667 31.7565Z" fill="#48CDA5"/>
<path d="M20.4834 31.7565C21.3762 31.7565 22.1 30.918 22.1 29.8836C22.1 28.8493 21.3762 28.0107 20.4834 28.0107C19.5905 28.0107 18.8667 28.8493 18.8667 29.8836C18.8667 30.918 19.5905 31.7565 20.4834 31.7565Z" fill="#48CDA5"/>
<path d="M32.3331 57.0595L37.1831 51.4408C37.4875 51.0881 37.6585 50.6098 37.6585 50.111C37.6585 49.6123 37.4875 49.1339 37.1831 48.7813C36.8787 48.4286 36.4658 48.2305 36.0353 48.2305C35.6047 48.2305 35.1919 48.4286 34.8874 48.7813L28.8734 55.7672C28.5723 56.1181 28.4033 56.5928 28.4033 57.0876C28.4033 57.5824 28.5723 58.057 28.8734 58.408L34.8874 65.3939C35.0377 65.5694 35.2165 65.7087 35.4135 65.8038C35.6105 65.8989 35.8218 65.9479 36.0353 65.9479C36.2487 65.9479 36.46 65.8989 36.657 65.8038C36.854 65.7087 37.0328 65.5694 37.1831 65.3939C37.4842 65.043 37.6532 64.5683 37.6532 64.0735C37.6532 63.5787 37.4842 63.104 37.1831 62.7531L32.3331 57.0595Z" fill="#48CDA5"/>
<path d="M55.4842 65.3566C55.7871 65.7054 56.1968 65.9012 56.6239 65.9012C57.051 65.9012 57.4608 65.7054 57.7637 65.3566L63.7938 58.4643C64.0949 58.1134 64.264 57.6387 64.264 57.1439C64.264 56.6492 64.0949 56.1745 63.7938 55.8236L57.7637 48.8377C57.4592 48.4875 57.0472 48.2917 56.6182 48.2935C56.1892 48.2952 55.7784 48.4943 55.4761 48.847C55.1738 49.1997 55.0048 49.677 55.0064 50.174C55.0079 50.671 55.1797 51.147 55.4842 51.4972L60.3342 57.1159L55.4842 62.7345C55.188 63.0846 55.022 63.5553 55.022 64.0456C55.022 64.5358 55.188 65.0065 55.4842 65.3566Z" fill="#48CDA5"/>
<path d="M50.1167 49.3807C49.9322 49.2569 49.7284 49.1766 49.517 49.1444C49.3055 49.1122 49.0907 49.1288 48.8848 49.1932C48.679 49.2576 48.4861 49.3686 48.3175 49.5197C48.1488 49.6708 48.0075 49.8591 47.9019 50.0737L41.9364 62.2101C41.8194 62.4232 41.7409 62.6616 41.7055 62.9109C41.6701 63.1601 41.6786 63.4151 41.7305 63.6604C41.7824 63.9057 41.8766 64.1364 42.0074 64.3385C42.1382 64.5406 42.3029 64.7099 42.4917 64.8363C42.6805 64.9627 42.8894 65.0436 43.1058 65.0741C43.3223 65.1045 43.5418 65.0839 43.7512 65.0136C43.9606 64.9432 44.1555 64.8245 44.3243 64.6645C44.4931 64.5046 44.6322 64.3068 44.7333 64.083L50.7634 52.0028C50.8762 51.7833 50.9491 51.5395 50.9775 51.2862C51.006 51.0329 50.9894 50.7755 50.9289 50.53C50.8683 50.2844 50.765 50.0557 50.6253 49.8581C50.4857 49.6605 50.3126 49.498 50.1167 49.3807Z" fill="#48CDA5"/>
<path d="M90.3072 75.3202C90.2118 75.3193 90.1189 75.2848 90.0409 75.2212C89.9629 75.1576 89.9035 75.068 89.8707 74.9643C89.2274 73.0039 88.3157 71.1763 87.1708 69.5516C87.1166 69.4608 87.0875 69.353 87.0875 69.2426C87.0875 69.1322 87.1166 69.0244 87.1708 68.9336C87.6632 67.9449 87.7968 66.7703 87.5421 65.6676C87.2875 64.565 86.6655 63.6245 85.8128 63.0527L84.6003 62.2099V28.0108C84.6003 26.5206 84.0893 25.0915 83.1798 24.0378C82.2702 22.9841 81.0366 22.3921 79.7503 22.3921H12.9335C11.6472 22.3921 10.4136 22.9841 9.50403 24.0378C8.59448 25.0915 8.0835 26.5206 8.0835 28.0108V75.47C8.08775 76.6258 8.48598 77.7329 9.19148 78.5502C9.89697 79.3676 10.8526 79.8289 11.8503 79.8338H33.9502L32.3335 86.7636H30.1833C28.6087 86.7648 27.0804 87.381 25.8454 88.5127C24.6104 89.6444 23.7408 91.2254 23.3772 93.0003H19.4002C18.9714 93.0003 18.5602 93.1976 18.257 93.5489C17.9538 93.9001 17.7835 94.3765 17.7835 94.8732C17.7835 95.3699 17.9538 95.8463 18.257 96.1975C18.5602 96.5488 18.9714 96.7461 19.4002 96.7461H60.5767C60.5493 97.1936 60.5875 97.6432 60.6898 98.0759C60.811 98.6253 61.0267 99.1407 61.324 99.5912C61.6212 100.042 61.9939 100.418 62.4197 100.698L65.8308 102.983C66.2544 103.265 66.7216 103.447 67.206 103.519C67.6903 103.592 68.1822 103.553 68.6536 103.405C69.125 103.257 69.5667 103.003 69.9533 102.658C70.34 102.312 70.6641 101.882 70.9072 101.391C70.9595 101.295 71.0349 101.22 71.1239 101.173C71.213 101.126 71.3118 101.111 71.4083 101.129C73.1842 101.485 74.9997 101.485 76.7757 101.129C76.874 101.11 76.9748 101.127 77.0645 101.178C77.1542 101.228 77.2283 101.309 77.2768 101.41C77.6063 102.063 78.0787 102.605 78.6463 102.98C79.2139 103.354 79.8568 103.549 80.5102 103.545C81.1619 103.552 81.8037 103.358 82.3693 102.983L85.7805 100.698C86.204 100.415 86.5749 100.037 86.8718 99.5873C87.1687 99.1373 87.3857 98.6236 87.5103 98.0759C87.6391 97.5314 87.6725 96.9626 87.6086 96.4029C87.5448 95.8432 87.3849 95.304 87.1385 94.817C87.0829 94.7233 87.0531 94.6123 87.0531 94.4986C87.0531 94.3849 87.0829 94.2739 87.1385 94.1802C88.2799 92.5597 89.1912 90.7389 89.8383 88.7863C89.8691 88.681 89.928 88.5899 90.0065 88.5259C90.0849 88.4619 90.1789 88.4285 90.2748 88.4304C91.2597 88.4255 92.203 87.9701 92.8994 87.1633C93.5958 86.3565 93.9889 85.2637 93.9932 84.1228V79.5529C93.9763 78.4299 93.5816 77.359 92.893 76.5683C92.2045 75.7776 91.2766 75.3298 90.3072 75.3202ZM11.3168 28.0108C11.3168 27.5141 11.4872 27.0377 11.7903 26.6864C12.0935 26.3352 12.5047 26.1379 12.9335 26.1379H79.7503C80.1791 26.1379 80.5903 26.3352 80.8935 26.6864C81.1967 27.0377 81.367 27.5141 81.367 28.0108V33.6295H11.3168V28.0108ZM11.8503 76.088C11.7803 76.088 11.7109 76.0721 11.6462 76.041C11.5814 76.0099 11.5226 75.9644 11.4731 75.907C11.4235 75.8496 11.3843 75.7815 11.3574 75.7065C11.3306 75.6315 11.3168 75.5512 11.3168 75.47V37.3753H81.367V60.337C80.602 60.1016 79.792 60.1565 79.0558 60.4935C78.3197 60.8306 77.6962 61.4322 77.2768 62.2099C77.2265 62.3023 77.1533 62.3749 77.0668 62.4183C76.9802 62.4618 76.8844 62.474 76.7918 62.4534C75.0146 62.1161 73.2018 62.1161 71.4245 62.4534C71.3318 62.4767 71.2352 62.4658 71.1481 62.4221C71.0611 62.3785 70.9881 62.3042 70.9395 62.2099C70.6966 61.7189 70.3723 61.2884 69.9852 60.9433C69.5981 60.5982 69.1559 60.3452 68.684 60.199C68.2122 60.0527 67.72 60.0161 67.2358 60.0912C66.7517 60.1663 66.2852 60.3517 65.8632 60.6366L62.452 62.9216C62.0273 63.1984 61.6552 63.5716 61.358 64.0189C61.0607 64.4662 60.8445 64.9785 60.7222 65.5249C60.4636 66.6291 60.5914 67.8068 61.0778 68.8025C61.1368 68.891 61.1688 68.9997 61.1688 69.1115C61.1688 69.2233 61.1368 69.332 61.0778 69.4205C59.9329 71.0451 59.0213 72.8728 58.378 74.8332C58.3451 74.9369 58.2857 75.0265 58.2077 75.0901C58.1297 75.1537 58.0369 75.1882 57.9415 75.1891C57.1497 75.1904 56.3791 75.4858 55.7428 76.0319L11.8503 76.088ZM54.9668 86.7636H35.5668L37.1835 79.8338H54.1585V84.1228C54.1688 85.0823 54.4531 86.0108 54.9668 86.7636ZM30.1995 90.5094H58.9762C59.3457 91.3728 59.767 92.2052 60.2372 93.0003H26.7883C27.0935 92.2562 27.5744 91.6273 28.1751 91.1865C28.7759 90.7457 29.4722 90.5109 30.1833 90.5094H30.1995ZM90.7922 84.1228C90.7922 84.2718 90.7411 84.4147 90.6501 84.5201C90.5591 84.6254 90.4358 84.6846 90.3072 84.6846C89.5541 84.6868 88.8192 84.9527 88.1989 85.4473C87.5786 85.942 87.1019 86.6424 86.8313 87.4565C86.3146 89.0356 85.5832 90.5088 84.665 91.8204C84.1915 92.4979 83.9057 93.3254 83.8452 94.1943C83.7846 95.0632 83.952 95.9331 84.3255 96.6899C84.3515 96.7544 84.365 96.8247 84.365 96.8959C84.365 96.9671 84.3515 97.0374 84.3255 97.1019C84.3114 97.1763 84.284 97.2464 84.245 97.3077C84.206 97.3691 84.1563 97.4202 84.0992 97.4578L80.7365 99.6678C80.6803 99.704 80.6185 99.7269 80.5547 99.7352C80.4908 99.7434 80.4262 99.7369 80.3645 99.716C80.3028 99.6951 80.2454 99.6602 80.1954 99.6134C80.1455 99.5665 80.1041 99.5086 80.0737 99.4431C79.6914 98.6883 79.1206 98.0855 78.4365 97.7144C77.7525 97.3432 76.9874 97.2211 76.2422 97.3642C74.819 97.645 73.365 97.645 71.9418 97.3642C71.1949 97.2229 70.4286 97.3478 69.7444 97.7224C69.0601 98.097 68.4903 98.7036 68.1103 99.4618C68.0432 99.5874 67.9373 99.6786 67.8141 99.7169C67.691 99.7551 67.5599 99.7376 67.4475 99.6678L64.0363 97.3829C63.9792 97.3453 63.9295 97.2941 63.8905 97.2328C63.8515 97.1715 63.8241 97.1014 63.81 97.027C63.784 96.9625 63.7705 96.8922 63.7705 96.821C63.7705 96.7498 63.784 96.6795 63.81 96.615C64.1791 95.8567 64.3441 94.9878 64.2836 94.12C64.2231 93.2523 63.9399 92.4253 63.4705 91.7455C62.544 90.4372 61.8069 88.9634 61.288 87.3816C61.0168 86.5889 60.547 85.9084 59.9391 85.4277C59.3311 84.947 58.6129 84.6882 57.8768 84.6846C57.7482 84.6846 57.6248 84.6254 57.5339 84.5201C57.4429 84.4147 57.3918 84.2718 57.3918 84.1228V79.5529C57.3896 79.4784 57.4006 79.4042 57.4241 79.3348C57.4477 79.2655 57.4834 79.2025 57.5289 79.1498C57.5743 79.0971 57.6287 79.0558 57.6886 79.0285C57.7485 79.0012 57.8125 78.9884 57.8768 78.991C58.6276 78.9877 59.36 78.7211 59.9775 78.2263C60.595 77.7316 61.0688 77.0318 61.3365 76.2191C61.8517 74.6353 62.5891 73.1608 63.519 71.8553C63.9884 71.1754 64.2716 70.3485 64.3321 69.4807C64.3926 68.613 64.2276 67.7441 63.8585 66.9858C63.8322 66.9181 63.8185 66.8446 63.8185 66.7704C63.8185 66.6961 63.8322 66.6227 63.8585 66.555C63.8716 66.4826 63.8988 66.4146 63.9381 66.3562C63.9773 66.2977 64.0275 66.2504 64.0848 66.2179L67.496 63.9329C67.5753 63.9074 67.6592 63.9074 67.7385 63.9329C67.8194 63.9341 67.8988 63.9587 67.9693 64.0045C68.0399 64.0503 68.0995 64.1159 68.1427 64.1951C68.5243 64.9515 69.0944 65.5566 69.7782 65.9309C70.4619 66.3053 71.2274 66.4314 71.9742 66.2928C73.3974 66.0119 74.8513 66.0119 76.2745 66.2928C77.0262 66.4104 77.791 66.2623 78.4689 65.868C79.1468 65.4737 79.7061 64.8515 80.0737 64.0828C80.1053 64.021 80.1471 63.9671 80.1968 63.9242C80.2466 63.8813 80.3031 63.8502 80.3633 63.8328C80.4234 63.8154 80.4859 63.812 80.5472 63.8227C80.6085 63.8335 80.6673 63.8582 80.7203 63.8955L84.1315 66.1804C84.1889 66.213 84.239 66.2603 84.2783 66.3187C84.3175 66.3771 84.3447 66.4451 84.3578 66.5175C84.3842 66.5852 84.3978 66.6587 84.3978 66.7329C84.3978 66.8072 84.3842 66.8806 84.3578 66.9483C83.9857 67.7023 83.819 68.5689 83.8796 69.4346C83.9402 70.3002 84.2252 71.1244 84.6973 71.7991C85.6159 73.1173 86.3472 74.5967 86.8637 76.1817C87.1185 77.0095 87.584 77.7283 88.1988 78.2432C88.8136 78.7582 89.5487 79.045 90.3072 79.0659C90.3715 79.0633 90.4355 79.0761 90.4954 79.1034C90.5553 79.1307 90.6096 79.172 90.6551 79.2247C90.7006 79.2774 90.7363 79.3404 90.7598 79.4097C90.7834 79.4791 90.7944 79.5533 90.7922 79.6278V84.1228Z" fill="#39C5BD"/>
<path d="M74.0916 73.335C72.64 73.335 71.2209 73.8337 70.0139 74.768C68.8069 75.7023 67.8662 77.0303 67.3107 78.584C66.7551 80.1377 66.6098 81.8473 66.893 83.4968C67.1762 85.1462 67.8752 86.6612 68.9017 87.8504C69.9282 89.0396 71.236 89.8494 72.6597 90.1775C74.0835 90.5056 75.5592 90.3372 76.9004 89.6936C78.2415 89.05 79.3878 87.9602 80.1943 86.5619C81.0008 85.1636 81.4313 83.5196 81.4313 81.8379C81.4313 79.5828 80.658 77.42 79.2816 75.8254C77.9051 74.2308 76.0382 73.335 74.0916 73.335ZM74.0916 86.5951C73.2795 86.5951 72.4855 86.3161 71.8103 85.7933C71.135 85.2706 70.6087 84.5277 70.2979 83.6584C69.9871 82.7891 69.9057 81.8326 70.0642 80.9098C70.2226 79.987 70.6137 79.1394 71.188 78.4741C71.7623 77.8088 72.494 77.3557 73.2905 77.1722C74.0871 76.9886 74.9127 77.0828 75.6631 77.4429C76.4134 77.8029 77.0547 78.4127 77.5059 79.195C77.9571 79.9773 78.198 80.897 78.198 81.8379C78.1894 83.0931 77.753 84.2935 76.9839 85.1775C76.2147 86.0616 75.1751 86.5577 74.0916 86.5576V86.5951Z" fill="#48CDA5"/>
</g>
<defs>
<clipPath id="clip0_71_2528">
<rect width="97" height="112.374" fill="white" transform="translate(0 0.404297)"/>
</clipPath>
</defs>
</svg>
