<svg width="90" height="90" viewBox="0 0 90 90" fill="none" xmlns="http://www.w3.org/2000/svg">
<path d="M61.875 68.873H87.1875V35.2419H70.3125V19.8276C65.6536 19.8276 61.875 23.5929 61.875 28.2354V68.873Z" fill="#F7C544"/>
<path d="M11.25 39.4456C11.25 41.7675 9.36141 43.6495 7.03125 43.6495C4.70109 43.6495 2.8125 41.7675 2.8125 39.4456C2.8125 37.1236 4.70109 35.2417 7.03125 35.2417C9.36141 35.2417 11.25 37.1236 11.25 39.4456Z" fill="#F7C544"/>
<path d="M11.25 47.8533C11.25 50.1752 9.36141 52.0572 7.03125 52.0572C4.70109 52.0572 2.8125 50.1752 2.8125 47.8533C2.8125 45.5314 4.70109 43.6494 7.03125 43.6494C9.36141 43.6494 11.25 45.53 11.25 47.8533Z" fill="#F7C544"/>
<path d="M11.25 56.2615C11.25 58.5835 9.36141 60.4654 7.03125 60.4654C4.70109 60.4654 2.8125 58.5835 2.8125 56.2615C2.8125 53.9396 4.70109 52.0576 7.03125 52.0576C9.36141 52.0576 11.25 53.9382 11.25 56.2615Z" fill="#F7C544"/>
<path d="M11.25 64.6692C11.25 66.9912 9.36141 68.8731 7.03125 68.8731C4.70109 68.8731 2.8125 66.9912 2.8125 64.6692C2.8125 62.3473 4.70109 60.4653 7.03125 60.4653C9.36141 60.4653 11.25 62.3459 11.25 64.6692Z" fill="#F7C544"/>
<path d="M59.0625 11.42H11.25V8.61739C11.25 5.52193 13.7686 3.01221 16.875 3.01221H53.4375C56.5439 3.01221 59.0625 5.52193 59.0625 8.61739V11.42Z" fill="#F7C544"/>
<path d="M11.25 78.6821H59.0625V81.4847C59.0625 84.5802 56.5439 87.0899 53.4375 87.0899H16.875C13.7686 87.0899 11.25 84.5802 11.25 81.4847V78.6821Z" fill="#F7C544"/>
<path d="M11.25 14.2227V75.8797H59.0625V14.2227H11.25ZM35.1562 31.0368H49.2188V33.8394H35.1562V31.0368ZM53.4375 39.446V50.6563H39.375V39.446H53.4375ZM16.875 21.2291H30.9375V32.4395H16.875V21.2291ZM15.4688 38.0433H35.1562V40.8459H15.4688V38.0433ZM15.4688 43.6485H35.1562V46.4511H15.4688V43.6485ZM15.4688 49.2537H35.1562V52.0562H15.4688V49.2537ZM30.9375 68.8732H16.875V57.6628H30.9375V68.8732ZM37.9688 70.2731H35.1562V67.4705H37.9688V70.2731ZM43.5938 70.2731H40.7812V67.4705H43.5938V70.2731ZM49.2188 70.2731H46.4062V67.4705H49.2188V70.2731ZM54.8438 70.2731H52.0312V67.4705H54.8438V70.2731ZM54.8438 64.6679H35.1562V61.8653H54.8438V64.6679ZM54.8438 59.0627H35.1562V56.2601H54.8438V59.0627ZM54.8438 33.8394H52.0312V31.0368H54.8438V33.8394ZM54.8438 28.2342H35.1562V25.4316H54.8438V28.2342ZM54.8438 22.629H35.1562V19.8264H54.8438V22.629Z" fill="#F7C544"/>
</svg>
