<svg width="75" height="82" viewBox="0 0 75 82" fill="none" xmlns="http://www.w3.org/2000/svg">
<path d="M55.2803 12.1021H20.1416C13.9883 12.1021 9 17.492 9 24.1407V60.078C9 66.7267 13.9883 72.1167 20.1416 72.1167H55.2803C61.4336 72.1167 66.4219 66.7267 66.4219 60.078V24.1407C66.4219 17.492 61.4336 12.1021 55.2803 12.1021Z" fill="#FF7E7E"/>
<path d="M22.5232 46.304L20.7361 52.2553C20.7116 52.3505 20.6577 52.4337 20.5834 52.4913C20.509 52.5489 20.4187 52.5773 20.3274 52.5719H16.0105C15.7513 52.5719 15.6766 52.4136 15.7176 52.1698L23.1604 28.9693C23.3069 28.5277 23.4534 28.045 23.5325 26.5176C23.5292 26.4487 23.5504 26.3811 23.5918 26.3287C23.6333 26.2763 23.6917 26.243 23.7552 26.2358H29.7098C29.8958 26.2358 29.969 26.2754 30.0027 26.4764L38.449 52.2094C38.5237 52.4104 38.4871 52.5719 38.263 52.5719H33.429C33.3408 52.5848 33.2513 52.5637 33.1762 52.5121C33.1011 52.4605 33.0454 52.3819 33.0188 52.2901L31.1219 46.2993L22.5232 46.304ZM29.7361 41.2787C29.0037 38.6243 27.5096 33.7588 26.8064 30.9051H26.7698C26.1736 33.5958 24.8348 38.0276 23.8665 41.2787H29.7361Z" fill="#FFE4DD"/>
<path d="M40.7932 37.2536C40.7932 35.8877 40.7185 33.7968 40.6467 32.912C40.6086 32.711 40.6833 32.5955 40.906 32.5955H44.8142C45.1071 32.5955 45.2229 32.7158 45.2976 32.912C45.4519 33.3373 45.5505 33.7837 45.5905 34.2384C47.0724 32.9001 48.9459 32.1737 50.8772 32.1887C53.7424 32.1887 57.1291 33.7968 57.1291 40.2704V52.211C57.1291 52.4531 57.0544 52.5734 56.7937 52.5734H52.3288C52.0681 52.5734 51.9567 52.4531 51.9567 52.211V40.7516C51.9567 38.3394 50.99 37.0526 49.0549 37.0526C47.9162 37.0314 46.8124 37.4771 45.9655 38.2999V52.2521C45.9655 52.4532 45.8542 52.5687 45.6316 52.5687H41.1286C40.8679 52.5687 40.7932 52.4484 40.7932 52.2062V37.2536Z" fill="#FFE4DD"/>
</svg>
