<svg width="98" height="94" viewBox="0 0 98 94" fill="none" xmlns="http://www.w3.org/2000/svg">
<path d="M87.345 77.4477H10.655C6.99609 77.4477 4.01953 74.6253 4.01953 71.1559V65.6506C4.01953 65.1493 4.44809 64.7432 4.97656 64.7432H93.0234C93.5521 64.7432 93.9805 65.1493 93.9805 65.6506V71.1559C93.9805 74.6253 91.0037 77.4477 87.345 77.4477ZM5.93359 66.5581V71.1559C5.93359 73.6245 8.0515 75.6328 10.655 75.6328H87.3452C89.9487 75.6328 92.0666 73.6245 92.0666 71.1559V66.5581H5.93359Z" fill="#6F39C5"/>
<path d="M93.0234 66.5583H4.97656C4.44809 66.5583 4.01953 66.1521 4.01953 65.6509V25.0871C4.01953 20.934 7.58294 17.5552 11.9629 17.5552H45.268C45.7964 17.5552 46.225 17.9615 46.225 18.4626C46.225 18.9637 45.7964 19.3701 45.268 19.3701H11.9629C8.63836 19.3701 5.93359 21.9348 5.93359 25.0871V64.7434H92.0664V25.0871C92.0664 21.9348 89.3616 19.3701 86.0371 19.3701H64.2162C63.6876 19.3701 63.2592 18.9637 63.2592 18.4626C63.2592 17.9615 63.6876 17.5552 64.2162 17.5552H86.0371C90.4171 17.5552 93.9805 20.934 93.9805 25.0871V65.6509C93.9805 66.1521 93.5521 66.5583 93.0234 66.5583Z" fill="#6F39C5"/>
<path d="M33.9761 39.0606C33.726 39.0606 33.4815 38.9675 33.2993 38.7949C33.0503 38.5588 32.9582 38.2123 33.0595 37.8925L37.1198 25.0591C37.1654 24.9152 37.2477 24.7844 37.3596 24.6782L59.6916 3.50284C61.1376 2.13166 63.0603 1.37646 65.1051 1.37646C67.1503 1.37646 69.0728 2.13166 70.5188 3.50284C71.9651 4.87402 72.7616 6.69712 72.7616 8.63619C72.7616 10.5754 71.9651 12.3984 70.5188 13.7697L48.1873 34.9449C48.0753 35.0511 47.9373 35.1293 47.7855 35.1723L34.2512 39.0223C34.1607 39.0483 34.068 39.0606 33.9761 39.0606ZM38.8836 25.7996L35.4035 36.7997L47.0044 33.4997L69.1656 12.4862C70.2501 11.4577 70.8475 10.0905 70.8475 8.63619C70.8475 7.18188 70.2501 5.81452 69.1656 4.78618C68.0811 3.75765 66.639 3.1914 65.1051 3.1914C63.5714 3.1914 62.1293 3.75784 61.0448 4.78618L38.8836 25.7996Z" fill="#6F39C5"/>
<path d="M41.4198 30.6846C40.3169 30.6846 39.2142 30.2866 38.3745 29.4905C36.6955 27.8983 36.6955 25.3077 38.3745 23.7154C38.7481 23.3611 39.3541 23.3611 39.7279 23.7154C40.1017 24.0699 40.1017 24.6443 39.7279 24.9988C38.795 25.8833 38.795 27.3226 39.7279 28.2072C40.6608 29.0918 42.1787 29.0918 43.1116 28.2072C43.4856 27.8529 44.0914 27.8531 44.465 28.2072C44.8389 28.5616 44.8389 29.1362 44.465 29.4905C43.6255 30.2866 42.5227 30.6846 41.4198 30.6846Z" fill="#6F39C5"/>
<path d="M46.1572 35.1786C45.0069 35.1786 43.9254 34.7537 43.112 33.9825C42.2985 33.2114 41.8506 32.1858 41.8506 31.095C41.8506 30.0042 42.2987 28.9786 43.112 28.2074L55.0228 16.9137C55.3962 16.5594 56.0026 16.5594 56.376 16.9137C56.7498 17.2681 56.7498 17.8427 56.376 18.197L44.4654 29.4908C44.0135 29.9193 43.7645 30.489 43.7645 31.095C43.7645 31.7008 44.0133 32.2707 44.4654 32.699C44.9173 33.1275 45.5181 33.3636 46.157 33.3636C46.7961 33.3636 47.397 33.1277 47.8489 32.699C48.2225 32.3447 48.8287 32.3447 49.2023 32.699C49.5761 33.0535 49.5761 33.6279 49.2025 33.9824C48.3892 34.7537 47.3076 35.1786 46.1572 35.1786Z" fill="#6F39C5"/>
<path d="M67.1353 16.602C66.8905 16.602 66.6453 16.5134 66.4587 16.3363L56.9845 7.35276C56.6106 6.9983 56.6106 6.42369 56.9845 6.06942C57.3579 5.71514 57.9643 5.71514 58.3377 6.06942L67.8119 15.053C68.1857 15.4074 68.1857 15.982 67.8119 16.3363C67.6253 16.5134 67.3801 16.602 67.1353 16.602Z" fill="#6F39C5"/>
<path d="M70.0546 57.4835H54.7421C51.5759 57.4835 48.9999 55.041 48.9999 52.0387C48.9999 49.0365 51.5759 46.594 54.7421 46.594H75.7968C77.9076 46.594 79.6249 44.9656 79.6249 42.9641V42.6904C79.6249 40.6889 77.9076 39.0605 75.7968 39.0605H33.9761C33.4476 39.0605 33.019 38.6542 33.019 38.1531C33.019 37.652 33.4476 37.2456 33.9761 37.2456H75.7968C78.9631 37.2456 81.539 39.6881 81.539 42.6904V42.9641C81.539 45.9663 78.9631 48.4089 75.7968 48.4089H54.7421C52.6313 48.4089 50.914 50.0372 50.914 52.0387C50.914 54.0403 52.6313 55.6686 54.7421 55.6686H70.0546C70.5833 55.6686 71.0117 56.0748 71.0117 56.5761C71.0117 57.0774 70.5833 57.4835 70.0546 57.4835Z" fill="#6F39C5"/>
<path d="M33.6875 58.3911H4.97656C4.44809 58.3911 4.01953 57.9849 4.01953 57.4836C4.01953 56.9824 4.44809 56.5762 4.97656 56.5762H33.6875C34.216 56.5762 34.6445 56.9824 34.6445 57.4836C34.6445 57.9849 34.216 58.3911 33.6875 58.3911Z" fill="#6F39C5"/>
<path d="M33.6875 52.9463H4.97656C4.44809 52.9463 4.01953 52.5401 4.01953 52.0388C4.01953 51.5375 4.44809 51.1313 4.97656 51.1313H33.6875C34.216 51.1313 34.6445 51.5375 34.6445 52.0388C34.6445 52.5401 34.216 52.9463 33.6875 52.9463Z" fill="#6F39C5"/>
<path d="M33.6875 47.5015H4.97656C4.44809 47.5015 4.01953 47.0953 4.01953 46.594C4.01953 46.0929 4.44809 45.6865 4.97656 45.6865H33.6875C34.216 45.6865 34.6445 46.0929 34.6445 46.594C34.6445 47.0953 34.216 47.5015 33.6875 47.5015Z" fill="#6F39C5"/>
<path d="M59.5273 88.3373H38.4727C37.9442 88.3373 37.5156 87.9311 37.5156 87.4299V76.5403C37.5156 76.039 37.9442 75.6328 38.4727 75.6328H59.5273C60.056 75.6328 60.4844 76.039 60.4844 76.5403V87.4299C60.4844 87.9311 60.056 88.3373 59.5273 88.3373ZM39.4297 86.5224H58.5703V77.4477H39.4297V86.5224Z" fill="#6F39C5"/>
<path d="M54.7422 88.3373H43.2578C42.7293 88.3373 42.3008 87.9311 42.3008 87.4299V76.5403C42.3008 76.039 42.7293 75.6328 43.2578 75.6328H54.7422C55.2709 75.6328 55.6992 76.039 55.6992 76.5403V87.4299C55.6992 87.9311 55.2709 88.3373 54.7422 88.3373ZM44.2148 86.5224H53.7852V77.4477H44.2148V86.5224Z" fill="#6F39C5"/>
<path d="M62.3984 91.9673H35.6016C34.0184 91.9673 32.7305 90.746 32.7305 89.2449C32.7305 87.7437 34.0184 86.5225 35.6016 86.5225H62.3984C63.9816 86.5225 65.2695 87.7437 65.2695 89.2449C65.2695 90.746 63.9816 91.9673 62.3984 91.9673ZM35.6016 88.3374C35.0739 88.3374 34.6445 88.7445 34.6445 89.2449C34.6445 89.7452 35.0739 90.1523 35.6016 90.1523H62.3984C62.9261 90.1523 63.3555 89.7452 63.3555 89.2449C63.3555 88.7445 62.9261 88.3374 62.3984 88.3374H35.6016Z" fill="#6F39C5"/>
</svg>
