<svg width="100" height="97" viewBox="0 0 100 97" fill="none" xmlns="http://www.w3.org/2000/svg">
<path d="M75 3.61133C62.9375 3.61133 53.125 13.0476 53.125 24.6476C53.125 34.1741 59.7656 42.243 68.8125 44.8125C69.1406 47.8327 71.7812 50.1917 75 50.1917C78.2188 50.1917 80.8437 47.8327 81.1875 44.8125C90.25 42.243 96.875 34.1741 96.875 24.6476C96.875 13.0476 87.0625 3.61133 75 3.61133ZM75 47.1866C73.7656 47.1866 72.7031 46.4954 72.2031 45.4886C73.125 45.6088 74.0469 45.684 75 45.684C75.9531 45.684 76.875 45.6088 77.7969 45.4886C77.2813 46.4803 76.2344 47.1866 75 47.1866ZM75 42.6788C64.6562 42.6788 56.25 34.5948 56.25 24.6476C56.25 14.7005 64.6562 6.61652 75 6.61652C85.3438 6.61652 93.75 14.7005 93.75 24.6476C93.75 34.5948 85.3438 42.6788 75 42.6788Z" fill="#C55B39"/>
<path d="M71.875 54.6992C71.875 52.2199 69.7656 50.1914 67.1875 50.1914C64.6094 50.1914 62.5 52.2199 62.5 54.6992C62.5 57.1785 64.6094 59.207 67.1875 59.207C69.7656 59.207 71.875 57.1785 71.875 54.6992ZM65.625 54.6992C65.625 53.8728 66.3281 53.1966 67.1875 53.1966C68.0469 53.1966 68.75 53.8728 68.75 54.6992C68.75 55.5256 68.0469 56.2018 67.1875 56.2018C66.3281 56.2018 65.625 55.5256 65.625 54.6992Z" fill="#C55B39"/>
<path d="M57.8125 66.7202C60.3906 66.7202 62.5 64.6917 62.5 62.2124C62.5 59.7331 60.3906 57.7046 57.8125 57.7046C55.2344 57.7046 53.125 59.7331 53.125 62.2124C53.125 64.6917 55.2344 66.7202 57.8125 66.7202ZM57.8125 60.7098C58.6719 60.7098 59.375 61.3859 59.375 62.2124C59.375 63.0388 58.6719 63.715 57.8125 63.715C56.9531 63.715 56.25 63.0388 56.25 62.2124C56.25 61.3859 56.9531 60.7098 57.8125 60.7098Z" fill="#C55B39"/>
<path d="M81.25 90.7616H77.0781L82.7656 71.6336C82.9062 71.1828 82.8125 70.6869 82.5156 70.3113C82.2187 69.9356 81.7656 69.7103 81.2656 69.7103H52.4062C49.2031 66.8102 45.0469 65.2025 40.6406 65.2025H37.5156V64.2558L39.0312 63.6247C41.875 62.4527 43.7187 59.7781 43.7656 56.803L45.9531 56.3822C47.4062 56.0967 48.4687 54.8646 48.4687 53.4372V53.1667C51.0469 53.1667 53.1562 51.1382 53.1562 48.6589C53.1562 46.1796 51.0469 44.1511 48.4687 44.1511C48.25 44.1511 48.0312 44.1662 47.8125 44.1962C45.7812 37.2392 39.1406 32.1304 31.2812 32.1304C23.4219 32.1304 16.7812 37.2542 14.75 44.1962C14.5312 44.1662 14.3125 44.1511 14.0938 44.1511C11.5156 44.1511 9.40625 46.1796 9.40625 48.6589C9.40625 51.1382 11.5156 53.1667 14.0938 53.1667C14.0938 54.8195 15.5 56.1719 17.2187 56.1719H18.7812V56.7128C18.7812 59.718 20.6406 62.4377 23.5156 63.6247L25.0312 64.2558V65.2025H21.9062C12.4219 65.2025 4.71875 72.6103 4.71875 81.731V90.7466H3.15625V93.7518H81.25V90.7466V90.7616ZM48.4375 47.1864C49.2969 47.1864 50 47.8625 50 48.689C50 49.5154 49.2969 50.1916 48.4375 50.1916V48.689C48.4375 48.1931 48.4062 47.6972 48.3594 47.2014C48.3906 47.2014 48.4062 47.2014 48.4375 47.2014V47.1864ZM14.0625 48.689V50.1916C13.2031 50.1916 12.5 49.5154 12.5 48.689C12.5 47.8625 13.2031 47.1864 14.0625 47.1864C14.0937 47.1864 14.1094 47.1864 14.1406 47.1864C14.0937 47.6822 14.0625 48.1781 14.0625 48.6739V48.689ZM18.75 48.689V53.1967H17.1875V48.689C17.1875 41.2361 23.5 35.1656 31.25 35.1656C39 35.1656 45.3125 41.2361 45.3125 48.689V53.4672L43.75 53.7677V48.689C43.75 42.8889 38.8437 38.1708 32.8125 38.1708H29.6875C23.6562 38.1708 18.75 42.8889 18.75 48.689ZM37.4844 42.7086C33.8437 42.8589 31.9062 44.5568 30.1875 46.0744C28.5469 47.532 27.25 48.689 24.4687 48.689C23.5156 48.689 22.6875 48.5537 21.9219 48.2682C22.1562 44.3314 25.5312 41.176 29.6875 41.176H32.8125C34.5781 41.176 36.1875 41.762 37.4844 42.7086ZM24.7031 60.89C22.9844 60.1838 21.8594 58.546 21.8594 56.7429V51.3936C22.6719 51.589 23.5312 51.6941 24.4531 51.6941C28.4531 51.6941 30.5 49.891 32.2969 48.2833C33.9375 46.8257 35.2344 45.6838 38 45.6838C38.7656 45.6838 39.4219 45.804 40.0625 45.9843C40.4062 46.8257 40.6094 47.7273 40.6094 48.689V54.3688L30.9219 56.232L31.5312 59.1771L40.5469 57.4491C40.2969 58.9667 39.2656 60.274 37.7656 60.89L33.0781 62.8284C31.9062 63.3092 30.5625 63.3092 29.3906 62.8284L24.7031 60.89ZM34.3594 65.5631V66.7201C34.3594 68.3729 32.9531 69.7253 31.2344 69.7253C29.5156 69.7253 28.1094 68.3729 28.1094 66.7201V65.5631H28.1562C29.1406 65.9838 30.1875 66.1792 31.2344 66.1792C32.2812 66.1792 33.3281 65.9838 34.3125 65.5781H34.3594V65.5631ZM28.1094 90.7466H24.9844V87.7414H26.5469C27.4062 87.7414 28.1094 88.4175 28.1094 89.244V90.7466ZM31.2344 90.7466V89.244C31.2344 86.7647 29.125 84.7362 26.5469 84.7362H17.1719V80.8445L19.8438 78.275L17.6406 76.1564L14.5156 79.1616C14.2187 79.4471 14.0625 79.8227 14.0625 80.2284V86.2388C14.0625 87.0652 14.7656 87.7414 15.625 87.7414H21.875V90.7466H7.8125V81.731C7.8125 74.2781 14.125 68.2077 21.875 68.2077H25.2031C25.9062 70.7921 28.3437 72.7154 31.25 72.7154C34.1562 72.7154 36.6094 70.7921 37.2969 68.2077H40.625C42.8906 68.2077 45.0781 68.7336 47.0469 69.7103H46.875C46.1719 69.7103 45.5625 70.161 45.375 70.8071L39.4531 90.7466H31.25H31.2344ZM42.6875 90.7466L48.0469 72.7154H79.1719L73.8125 90.7466H42.7031H42.6875Z" fill="#C55B39"/>
<path d="M60.9375 80.2437V83.2488C61.7969 83.2488 62.5 82.5727 62.5 81.7462C62.5 80.9198 61.7969 80.2437 60.9375 80.2437Z" fill="#C55B39"/>
<path d="M86.5157 15.3612C85.9844 15.4514 85.4688 15.2861 85.0938 14.9405C84.7188 14.5949 84.5626 14.084 84.6563 13.5732C84.7657 13.0022 84.5001 12.4162 84.0001 12.0856C82.1563 10.8535 80.0938 10.0421 77.8751 9.65139C77.2657 9.54621 76.6719 9.78662 76.3126 10.2524C75.6876 11.0939 74.2969 11.0939 73.6876 10.2524C73.3438 9.7716 72.7344 9.54621 72.1251 9.65139C69.9063 10.0421 67.8438 10.8685 66.0001 12.0856C65.5001 12.4162 65.2501 13.0022 65.3438 13.5732C65.4376 14.084 65.2657 14.5799 64.9063 14.9405C64.5469 15.3011 64.0157 15.4514 63.4844 15.3612C62.8907 15.2711 62.2813 15.5115 61.9376 15.9923C60.6563 17.7654 59.8126 19.7488 59.4063 21.8825C59.2969 22.4535 59.5469 23.0395 60.0313 23.3851C60.4688 23.6856 60.7188 24.1364 60.7188 24.6473C60.7188 25.1582 60.4688 25.6089 60.0313 25.9095C59.5313 26.2551 59.2969 26.826 59.4063 27.4121C59.8126 29.5457 60.6719 31.5292 61.9376 33.3022C62.2813 33.7831 62.8907 34.0235 63.4844 33.9333C64.0157 33.8432 64.5313 34.0084 64.9063 34.354C65.2813 34.6996 65.4376 35.2105 65.3438 35.7214C65.2344 36.2924 65.5001 36.8784 66.0001 37.209C67.8438 38.4411 69.9063 39.2525 72.1251 39.6432C72.7344 39.7483 73.3282 39.5079 73.6876 39.0421C74.3126 38.2007 75.7032 38.2007 76.3126 39.0421C76.6094 39.4478 77.0938 39.6732 77.5938 39.6732C77.6876 39.6732 77.7813 39.6732 77.8751 39.6432C80.0938 39.2525 82.1563 38.4261 84.0001 37.209C84.5001 36.8784 84.7501 36.2924 84.6563 35.7214C84.5626 35.2105 84.7344 34.7147 85.0938 34.354C85.4688 33.9934 85.9688 33.8432 86.5157 33.9333C87.1094 34.0235 87.7188 33.7831 88.0626 33.3022C89.3438 31.5292 90.1876 29.5457 90.5938 27.4121C90.7032 26.8411 90.4532 26.2551 89.9688 25.9095C89.5313 25.6089 89.2813 25.1582 89.2813 24.6473C89.2813 24.1364 89.5313 23.6856 89.9688 23.3851C90.4688 23.0395 90.7032 22.4685 90.5938 21.8825C90.1876 19.7488 89.3282 17.7654 88.0626 15.9923C87.7188 15.5115 87.1094 15.2711 86.5157 15.3612ZM87.3438 27.6525C87.0469 28.7944 86.5782 29.8913 85.9532 30.8981C84.8126 30.9582 83.7188 31.424 82.8907 32.2204C82.0626 33.0167 81.5782 34.0685 81.5157 35.1654C80.4688 35.7665 79.3282 36.2173 78.1407 36.5027C77.2813 35.7665 76.1719 35.3608 75.0001 35.3608C73.8282 35.3608 72.7188 35.7815 71.8594 36.5027C70.6719 36.2173 69.5313 35.7665 68.4844 35.1654C68.4219 34.0685 67.9376 33.0167 67.1094 32.2204C66.2813 31.424 65.1876 30.9582 64.0469 30.8981C63.4219 29.8913 62.9532 28.7944 62.6563 27.6525C63.4219 26.826 63.8438 25.7592 63.8438 24.6323C63.8438 23.5053 63.4063 22.4385 62.6563 21.612C62.9532 20.4701 63.4219 19.3732 64.0469 18.3664C65.1876 18.3063 66.2813 17.8405 67.1094 17.0442C67.9376 16.2478 68.4219 15.196 68.4844 14.0991C69.5313 13.498 70.6719 13.0473 71.8594 12.7618C73.5782 14.2193 76.4063 14.2193 78.1251 12.7618C79.3126 13.0473 80.4532 13.498 81.5001 14.0991C81.5626 15.196 82.0469 16.2478 82.8751 17.0442C83.7032 17.8405 84.7969 18.3063 85.9376 18.3664C86.5626 19.3732 87.0313 20.4701 87.3282 21.612C86.5626 22.4385 86.1407 23.5053 86.1407 24.6323C86.1407 25.7592 86.5782 26.826 87.3282 27.6525H87.3438Z" fill="#C55B39"/>
<path d="M75 15.6318C69.8281 15.6318 65.625 19.6738 65.625 24.6474C65.625 29.621 69.8281 33.663 75 33.663C80.1719 33.663 84.375 29.621 84.375 24.6474C84.375 19.6738 80.1719 15.6318 75 15.6318ZM75 30.6578C71.5469 30.6578 68.75 27.9681 68.75 24.6474C68.75 21.3267 71.5469 18.637 75 18.637C78.4531 18.637 81.25 21.3267 81.25 24.6474C81.25 27.9681 78.4531 30.6578 75 30.6578Z" fill="#C55B39"/>
</svg>
