<svg width="24" height="27" viewBox="0 0 24 27" fill="none" xmlns="http://www.w3.org/2000/svg">
<g clip-path="url(#clip0_71_2446)">
<path d="M20 24.0903H4V21.9292C4 20.4964 4.52678 19.1222 5.46447 18.109C6.40215 17.0959 7.67392 16.5267 9 16.5267H15C16.3261 16.5267 17.5979 17.0959 18.5355 18.109C19.4732 19.1222 20 20.4964 20 21.9292V24.0903ZM12 14.3656C11.2121 14.3656 10.4319 14.1979 9.7039 13.8721C8.97595 13.5463 8.31451 13.0688 7.75736 12.4668C7.20021 11.8648 6.75825 11.1501 6.45672 10.3635C6.15519 9.57693 6 8.73389 6 7.88252C6 7.03114 6.15519 6.18811 6.45672 5.40154C6.75825 4.61497 7.20021 3.90028 7.75736 3.29827C8.31451 2.69626 8.97595 2.21872 9.7039 1.89291C10.4319 1.5671 11.2121 1.39941 12 1.39941C13.5913 1.39941 15.1174 2.08245 16.2426 3.29827C17.3679 4.51409 18 6.16309 18 7.88252C18 9.60194 17.3679 11.2509 16.2426 12.4668C15.1174 13.6826 13.5913 14.3656 12 14.3656Z" fill="white"/>
</g>
<defs>
<clipPath id="clip0_71_2446">
<rect width="24" height="25.9324" fill="white" transform="translate(0 0.318848)"/>
</clipPath>
</defs>
</svg>
