<svg width="9" height="10" viewBox="0 0 9 10" fill="none" xmlns="http://www.w3.org/2000/svg">
<path d="M4.19192 7.81738C4.22633 7.86735 4.27236 7.9082 4.32606 7.93642C4.37976 7.96465 4.43951 7.97939 4.50017 7.97939C4.56084 7.97939 4.62059 7.96465 4.67429 7.93642C4.72799 7.9082 4.77402 7.86735 4.80842 7.81738L8.18342 2.94238C8.22249 2.88615 8.2454 2.82029 8.24966 2.75196C8.25392 2.68362 8.23938 2.61543 8.20761 2.55478C8.17583 2.49413 8.12805 2.44335 8.06944 2.40795C8.01083 2.37255 7.94364 2.3539 7.87517 2.354H1.12517C1.05687 2.35429 0.989926 2.37318 0.931555 2.40867C0.873183 2.44415 0.825588 2.49487 0.793888 2.55538C0.762188 2.61588 0.747582 2.68389 0.751641 2.75208C0.7557 2.82027 0.77827 2.88606 0.816925 2.94238L4.19192 7.81738Z" fill="#979699"/>
</svg>
