<svg width="211" height="96" viewBox="0 0 211 96" fill="none" xmlns="http://www.w3.org/2000/svg">
<path d="M30.8657 48.0344C17.2853 49.0252 0 30.6462 0 30.6462V95.973H211V2.9337C189.461 20.5466 180.841 1.10395 153.823 2.9337C134.799 4.222 129.839 38.7387 112.331 30.6461C92.4397 21.4523 81.6106 -3.18977 60.7194 2.9337C41.307 8.62374 50.942 46.5697 30.8657 48.0344Z" fill="url(#paint0_linear_71_2443)"/>
<path d="M1 30.4813C1 30.4813 18.0805 48.7548 31.5 47.7697C51.3384 46.3134 41.8175 8.58549 61 2.92815C81.6437 -3.16013 92.3445 21.3403 112 30.4813C129.301 38.5274 134.202 4.20905 153 2.92815C179.699 1.10892 188.216 20.4398 209.5 2.92815" stroke="#73CED0" stroke-width="2" stroke-linecap="round"/>
<defs>
<linearGradient id="paint0_linear_71_2443" x1="106" y1="-45.0345" x2="105.416" y2="95.9727" gradientUnits="userSpaceOnUse">
<stop stop-color="#4BA2A4"/>
<stop offset="1" stop-color="#041616" stop-opacity="0"/>
</linearGradient>
</defs>
</svg>
