<svg width="254" height="193" viewBox="0 0 254 193" fill="none" xmlns="http://www.w3.org/2000/svg">
<path d="M177.973 48.4046C180.073 48.3796 182.118 47.7978 183.851 46.7327C185.585 45.6676 186.928 44.1671 187.71 42.4209C188.493 40.6746 188.681 38.7611 188.249 36.9223C187.818 35.0835 186.787 33.402 185.286 32.0904C183.786 30.7788 181.884 29.8961 179.82 29.5538C177.757 29.2115 175.625 29.4251 173.694 30.1675C171.763 30.9099 170.119 32.1478 168.971 33.7247C167.824 35.3015 167.223 37.1465 167.245 39.0263C167.275 41.547 168.422 43.9512 170.434 45.71C172.446 47.4687 175.158 48.438 177.973 48.4046ZM209.818 48.0263C211.917 48.0013 213.963 47.4196 215.696 46.3545C217.429 45.2894 218.772 43.7888 219.555 42.0426C220.338 40.2963 220.525 38.3828 220.094 36.544C219.662 34.7052 218.631 33.0237 217.131 31.7121C215.631 30.4005 213.729 29.5178 211.665 29.1755C209.602 28.8332 207.47 29.0468 205.539 29.7892C203.607 30.5316 201.964 31.7695 200.816 33.3464C199.668 34.9232 199.068 36.7682 199.09 38.648C199.12 41.1687 200.267 43.5729 202.279 45.3317C204.291 47.0905 207.003 48.0597 209.818 48.0263ZM114.182 129.961C113.266 131.412 111.941 132.624 110.339 133.474C108.737 134.324 106.916 134.783 105.056 134.806C103.196 134.828 101.364 134.412 99.7429 133.6C98.1216 132.788 96.768 131.608 95.8178 130.179C94.3917 128.022 92.069 126.459 89.3567 125.833C86.6443 125.206 83.7624 125.566 81.3397 126.834C80.0946 127.437 78.9961 128.257 78.1085 129.245C77.221 130.233 76.5624 131.369 76.1714 132.587C75.7804 133.805 75.6648 135.079 75.8316 136.337C75.9983 137.594 76.4439 138.807 77.1423 139.907C79.9861 144.217 84.0502 147.777 88.9252 150.227C93.8002 152.678 99.314 153.934 104.911 153.867C110.508 153.801 115.99 152.415 120.805 149.849C125.621 147.283 129.599 143.627 132.34 139.251C133.211 137.141 133.22 134.825 132.365 132.714C131.51 130.603 129.846 128.833 127.669 127.719C125.492 126.605 122.943 126.219 120.473 126.63C118.004 127.04 115.775 128.221 114.182 129.961ZM40.2158 159.357C46.8605 169.384 56.3388 177.662 67.699 183.36C79.0592 189.059 91.9017 191.977 104.937 191.822C117.972 191.668 130.742 188.445 141.964 182.478C153.185 176.511 162.464 168.01 168.869 157.829C169.558 156.736 169.999 155.532 170.166 154.287C170.334 153.042 170.225 151.78 169.846 150.574C169.466 149.368 168.824 148.242 167.956 147.26C167.087 146.278 166.01 145.461 164.787 144.854C163.317 144.127 161.675 143.723 159.995 143.675C158.125 143.691 156.291 144.149 154.679 145.003C153.067 145.856 151.735 147.076 150.817 148.537C146.244 155.816 139.615 161.895 131.597 166.161C126.73 168.75 118.024 170.658 111.932 171.757C107.986 172.469 105.136 172.842 105.136 172.842C105.136 172.842 86.642 170.866 78.5244 166.791C70.4068 162.717 63.6356 156.798 58.8914 149.629C58.1849 148.549 57.2463 147.604 56.1296 146.85C55.0129 146.097 53.74 145.549 52.3845 145.238C51.0289 144.927 49.6173 144.86 48.231 145.039C46.8448 145.219 45.5112 145.643 44.3071 146.285C43.0711 146.897 41.9829 147.722 41.1062 148.714C40.2294 149.705 39.5817 150.843 39.2008 152.06C38.8199 153.277 38.7135 154.549 38.8877 155.802C39.062 157.055 39.5135 158.263 40.2158 159.357ZM82.7774 78.0526L93.3923 77.9265L93.731 106.44C93.761 108.96 94.908 111.365 96.9199 113.123C98.9317 114.882 101.644 115.851 104.459 115.818C107.274 115.785 109.962 114.751 111.932 112.945C113.901 111.139 114.991 108.708 114.961 106.187L114.622 77.6743L220.772 76.4134C229.217 76.313 237.281 73.2128 243.19 67.7946C249.099 62.3764 252.367 55.0841 252.278 47.5219L252.052 28.5131C251.962 20.951 248.521 13.7384 242.485 8.46207C236.45 3.18577 228.314 0.277909 219.868 0.378234L81.8742 2.01744C73.4284 2.11777 65.3642 5.21806 59.4557 10.6363C53.5472 16.0544 50.2783 23.3467 50.3681 30.9089L50.5939 49.9177C50.6837 57.4798 54.125 64.6924 60.1605 69.9687C66.1961 75.2451 74.3317 78.1529 82.7774 78.0526ZM71.5979 30.6567C71.568 28.136 72.6576 25.7052 74.6271 23.8992C76.5966 22.0931 79.2847 21.0597 82.1 21.0262L220.094 19.387C222.909 19.3536 225.621 20.3229 227.633 22.0816C229.645 23.8404 230.792 26.2446 230.822 28.7653L231.048 47.7741C231.078 50.2948 229.988 52.7256 228.019 54.5317C226.049 56.3377 223.361 57.3711 220.546 57.4046L82.5516 59.0438C79.7363 59.0772 77.0245 58.108 75.0126 56.3492C73.0008 54.5904 71.8537 52.1862 71.8237 49.6655L71.5979 30.6567Z" fill="#F4F4F4"/>
<ellipse cx="18.5" cy="34" rx="18.5" ry="18" fill="white"/>
</svg>
