<svg width="180" height="210" viewBox="0 0 180 210" fill="none" xmlns="http://www.w3.org/2000/svg">
<path fill-rule="evenodd" clip-rule="evenodd" d="M74.2167 41.7138L64.5651 36.5579L57.5252 31.8708L53.8916 23.6682L58.5472 24.7228L57.8657 20.8559L54.4593 16.989L53.551 10.8956L44.9213 2.10718L40.72 8.43489L34.2478 9.60669L24.5962 7.73181L22.4387 11.0128L26.0722 17.5749L29.3651 22.6136L35.0426 26.2461L30.8413 30.5818L31.9768 35.8549L27.5484 43.2371L25.1639 50.8538L20.0542 58.7048L12.7871 58.1189L7.2232 65.8528L11.7651 69.251L13.2413 74.9928L17.2155 78.7425L19.2593 85.1874H5.63349L2 90.1089L10.0619 96.4366L12.2194 99.3661L9.49417 102.061L18.578 111.084L23.12 112.021L31.7496 107.569L33.68 114.482L34.5883 123.622L37.427 133.114L41.5149 147.527L48.1006 157.839L49.5768 162.409L51.8478 171.783L55.7084 178.931L58.2065 182.446L61.0452 189.946L64.5651 200.375L70.8103 207.405L73.3084 205.296L75.2387 200.14L80.9161 198.031L78.8722 195.57L81.3703 189.946L84.6633 189.594L83.8684 176.939L86.0258 169.791L85.231 163.58L83.0736 153.972L84.4361 148.23L87.2748 147.878L92.7252 145.183L95.6774 143.308L95.3367 139.91L101.014 134.989L105.216 130.301L111.233 121.513L119.636 116.591L122.361 112.139L121.339 106.514L128.833 104.991L133.035 105.108L133.603 102.296L131.786 96.2022L128.833 90.5776L129.288 86.1248L125.086 84.1327L125.995 81.4376L129.515 78.6253L124.292 74.6412L125.654 69.6025L131.104 72.7664L134.17 73.2351L135.533 78.391L141.665 79.4456L147.342 79.3284L151.203 80.6174L149.386 86.8279L146.661 87.2966L145.412 91.5151L149.386 95.382L149.613 90.6948L151.316 90.5776L156.426 102.413L159.151 100.655L158.129 97.4912L159.151 95.0304L158.129 87.2966L163.352 88.9371L165.055 82.8438L164.715 79.2112L167.099 72.8835L166.077 68.6651L173.004 63.5092L177.659 64.7981L176.183 60.2282L178 58.822L176.978 56.0097L170.052 54.9551L171.414 51.7913L167.44 47.2212L163.806 50.2679L158.243 48.5102L152.225 53.1974L147.796 58.822L143.027 59.7594L146.093 62.103L146.547 66.673L141.551 66.9074L136.214 66.4387L132.581 67.6105L126.335 64.681L125.995 63.2748L124.292 57.2987L120.885 58.9392L120.999 62.103L122.702 66.9074L122.588 69.8369L117.365 69.9541L109.644 68.1964L104.761 67.4933L100.446 63.7435L91.8167 62.6889L83.0736 58.5876L76.4877 54.9551L70.0155 52.0256L71.0375 45.112L74.2167 41.7138Z" fill="#6F39C5" stroke="white" stroke-width="4" stroke-linejoin="round"/>
</svg>
