<svg width="79" height="87" viewBox="0 0 79 87" fill="none" xmlns="http://www.w3.org/2000/svg">
<path d="M78.7969 43.5723C78.7969 68.6322 61.1509 86.9869 39.3984 86.9869C17.646 86.9869 7.98984e-06 66.6578 7.98984e-06 41.5979C-0.00419234 34.0126 1.64778 26.5472 4.8047 19.8852C4.83869 19.7699 4.89323 19.6639 4.96485 19.5742C3.25598 16.6191 2.50165 9.11711 6.84989 4.10293C6.84989 6.19692 7.94856 9.78689 9.18016 12.4697C10.1747 14.6042 11.2334 16.1406 11.9877 15.9438C13.7014 15.4727 19.6944 15.4727 20.5513 15.9438C21.9606 13.8553 25.388 8.05171 30.8333 8.05171C27.7903 11.5626 19.049 23.8395 34.2606 23.8395H37.6896L27.4075 31.7315C27.4075 31.7315 31.6213 32.8356 33.4935 36.4476C26.7781 35.4043 20.5529 37.2977 20.5529 41.5998C20.5529 45.9019 24.5263 51.4662 32.5454 51.4662C40.5644 51.4662 38.5384 47.5174 42.8226 47.5174C47.1068 47.5174 47.9588 51.4662 47.9588 51.4662C42.065 51.4662 37.7841 59.3583 30.8221 59.3583C34.2494 62.2803 36.5108 63.307 41.1009 63.307C52.4432 63.307 61.657 52.6917 61.657 39.6254C61.6621 34.5525 60.2446 29.6126 57.6146 25.5379C59.9407 27.5406 61.8748 30.0824 63.2915 32.9986C64.7082 35.9149 65.576 39.1404 65.8386 42.4665C66.4753 39.6037 66.7981 36.6607 66.7996 33.7059C66.7996 21.8264 62.4161 6.11596 54.8071 0.159668C65.7794 3.94284 78.7969 16.1922 78.7969 39.6236V43.5723Z" fill="#B3B3B3"/>
</svg>
