<svg width="35" height="28" viewBox="0 0 35 28" fill="none" xmlns="http://www.w3.org/2000/svg">
<path d="M27.4997 20.6665H24.1663V18.9998H10.833V20.6665H7.49967V18.9998H0.833008V27.3332H34.1663V18.9998H27.4997V20.6665ZM30.833 7.33317H25.833V3.99984C25.833 2.1665 24.333 0.666504 22.4997 0.666504H12.4997C10.6663 0.666504 9.16634 2.1665 9.16634 3.99984V7.33317H4.16634C2.33301 7.33317 0.833008 8.83317 0.833008 10.6665V17.3332H7.49967V13.9998H10.833V17.3332H24.1663V13.9998H27.4997V17.3332H34.1663V10.6665C34.1663 8.83317 32.6663 7.33317 30.833 7.33317ZM22.4997 7.33317H12.4997V3.99984H22.4997V7.33317Z" fill="white"/>
</svg>
