<svg width="33" height="34" viewBox="0 0 33 34" fill="none" xmlns="http://www.w3.org/2000/svg">
<path d="M28 2.00017C26.8952 2.00105 25.8359 2.44032 25.0547 3.22153C24.2735 4.00274 23.8342 5.06203 23.8333 6.16683C23.8333 6.76183 23.9633 7.32683 24.19 7.84183L20.9317 11.5068C19.8248 10.7428 18.5116 10.3336 17.1667 10.3335C15.9333 10.3335 14.7933 10.6935 13.8017 11.2768L10.0117 7.4885L9.97334 7.52683C10.3 6.8635 10.5 6.12516 10.5 5.3335C10.5 4.34459 10.2068 3.37789 9.65735 2.55565C9.10794 1.7334 8.32705 1.09254 7.41342 0.714101C6.49979 0.335663 5.49446 0.236646 4.52455 0.429572C3.55465 0.622498 2.66373 1.0987 1.96447 1.79796C1.26521 2.49723 0.789002 3.38814 0.596076 4.35805C0.40315 5.32795 0.502166 6.33328 0.880605 7.24692C1.25904 8.16055 1.89991 8.94144 2.72215 9.49085C3.5444 10.0403 4.5111 10.3335 5.5 10.3335C6.29167 10.3335 7.02834 10.1335 7.69334 9.80683L7.655 9.84516L11.445 13.6335C10.8327 14.6502 10.5063 15.8133 10.5 17.0002C10.5 18.6618 11.1333 20.1652 12.1417 21.3352L7.84667 25.6285C7.36528 25.4358 6.85185 25.3357 6.33334 25.3335C4.03667 25.3335 2.16667 27.2018 2.16667 29.5002C2.16667 31.7985 4.03667 33.6668 6.33334 33.6668C8.63 33.6668 10.5 31.7985 10.5 29.5002C10.5 28.9652 10.39 28.4568 10.205 27.9852L14.935 23.2552C15.6367 23.5052 16.38 23.6668 17.1667 23.6668C20.8433 23.6668 23.8333 20.6768 23.8333 17.0002C23.8333 15.9402 23.5617 14.9518 23.12 14.0602L26.6483 10.0885C27.075 10.2352 27.525 10.3335 28 10.3335C30.2983 10.3335 32.1667 8.46516 32.1667 6.16683C32.1667 3.8685 30.2983 2.00017 28 2.00017ZM17.1667 20.3335C15.3283 20.3335 13.8333 18.8385 13.8333 17.0002C13.8333 15.1618 15.3283 13.6668 17.1667 13.6668C19.005 13.6668 20.5 15.1618 20.5 17.0002C20.5 18.8385 19.005 20.3335 17.1667 20.3335Z" fill="white"/>
</svg>
