<svg width="32" height="32" viewBox="0 0 32 32" fill="none" xmlns="http://www.w3.org/2000/svg">
<path d="M14.3326 5.99983H19.3326L24.8159 0.499833C24.9708 0.343619 25.1552 0.219629 25.3583 0.135014C25.5614 0.0503997 25.7792 0.00683594 25.9992 0.00683594C26.2193 0.00683594 26.4371 0.0503997 26.6402 0.135014C26.8433 0.219629 27.0276 0.343619 27.1826 0.499833L31.4826 4.8165C31.793 5.12877 31.9672 5.55119 31.9672 5.9915C31.9672 6.43181 31.793 6.85423 31.4826 7.1665L27.6659 10.9998H14.3326V14.3332C14.3326 14.7752 14.157 15.1991 13.8444 15.5117C13.5319 15.8242 13.1079 15.9998 12.6659 15.9998C12.2239 15.9998 11.8 15.8242 11.4874 15.5117C11.1748 15.1991 10.9992 14.7752 10.9992 14.3332V9.33317C10.9992 8.44911 11.3504 7.60126 11.9755 6.97614C12.6007 6.35102 13.4485 5.99983 14.3326 5.99983ZM4.33257 14.3332V20.9998L0.515904 24.8165C0.205486 25.1288 0.03125 25.5512 0.03125 25.9915C0.03125 26.4318 0.205486 26.8542 0.515904 27.1665L4.8159 31.4832C4.97084 31.6394 5.15518 31.7634 5.35828 31.848C5.56138 31.9326 5.77922 31.9762 5.99924 31.9762C6.21926 31.9762 6.4371 31.9326 6.6402 31.848C6.8433 31.7634 7.02763 31.6394 7.18257 31.4832L14.3326 24.3332H20.9992C21.4413 24.3332 21.8652 24.1576 22.1777 23.845C22.4903 23.5324 22.6659 23.1085 22.6659 22.6665V20.9998H24.3326C24.7746 20.9998 25.1985 20.8242 25.5111 20.5117C25.8236 20.1991 25.9992 19.7752 25.9992 19.3332V17.6665H27.6659C28.1079 17.6665 28.5319 17.4909 28.8444 17.1783C29.157 16.8658 29.3326 16.4419 29.3326 15.9998V14.3332H17.6659V15.9998C17.6659 16.8839 17.3147 17.7317 16.6896 18.3569C16.0645 18.982 15.2166 19.3332 14.3326 19.3332H10.9992C10.1152 19.3332 9.26734 18.982 8.64222 18.3569C8.01709 17.7317 7.6659 16.8839 7.6659 15.9998V10.9998L4.33257 14.3332Z" fill="#292E3D"/>
</svg>
